<svg preserveAspectRatio="none" xmlns="http://www.w3.org/2000/svg" width="487" height="79" viewBox="0 0 487 79">
    <path fill="#41D3BD" fill-rule="nonzero" d="M347.662.14c0-.077.153-.14.34-.14.188 0 .28.063.206.14a.544.544 0 0 1-.34.138c-.114 0-.206-.062-.206-.139zm-1.527.973c0-.077.098-.14.218-.14s.218.063.218.14c0 .076-.098.139-.218.139s-.218-.063-.218-.14zm27.28.417c0-.076.044-.14.097-.14.053 0 .157.064.23.14.076.077.032.14-.096.14-.127 0-.231-.064-.231-.14zm-24.498.047c.15-.039.396-.039.546 0 .15.039.027.07-.273.07-.3 0-.423-.031-.273-.07zm41.521.092c0-.076.153-.139.34-.139.187 0 .28.063.206.14a.544.544 0 0 1-.34.138c-.114 0-.206-.062-.206-.139zm-.982 0c-.075-.076-.037-.139.084-.139.12 0 .279.063.353.14.073.076.036.138-.084.138a.562.562 0 0 1-.353-.139zm-24.552.444c0-.075.155-.174.345-.22.213-.052.313-.021.26.08-.109.208-.605.323-.605.14zm-18.204-.26c-.51-.279-.575-.373-.328-.473.17-.068.456-.124.636-.124.29 0 .29.016 0 .146-.244.108-.146.122.382.056.56-.07.709-.043.709.13 0 .121.147.22.327.22.18 0 .328.067.328.149 0 .086-.187.11-.447.058-.246-.05-.565-.028-.71.048-.183.097-.453.034-.897-.21zm48.65.374c-.076-.079.013-.102.205-.054.379.092.448.192.134.192a.538.538 0 0 1-.339-.138zm-76.278-.001c0-.077.099-.14.219-.14s.218.063.218.14c0 .076-.098.139-.218.139s-.219-.063-.219-.14zm84.46.139c0-.077.099-.14.219-.14s.218.063.218.14c0 .076-.098.139-.218.139s-.218-.063-.218-.14zm-6.16-.024c.126-.08.359-.12.516-.086.164.035.065.098-.23.147-.363.06-.449.043-.287-.06zm-51.674.101c0-.033.098-.1.218-.147.12-.047.219-.02.219.062 0 .08-.099.147-.219.147s-.218-.028-.218-.062zm-23.68-.078c-.077-.08.125-.138.479-.136.476.001.54.032.286.136-.42.173-.597.173-.764 0zm43.904.186c-.222-.141-.173-.325.085-.325.128 0 .176.058.108.128-.068.07 0 .159.151.197.152.04.169.076.038.082a.78.78 0 0 1-.382-.082zm22.334.093c-.264-.109-.23-.136.176-.137.281-.002.444.059.37.137-.163.167-.14.167-.546 0zm10.382.174c.108-.058.258-.157.333-.22.075-.065.196-.018.269.104.095.158 0 .22-.334.22-.256 0-.377-.047-.268-.104zm-178.38-.061c.132-.253.532-.288.532-.048 0 .117-.139.213-.31.213-.17 0-.27-.074-.222-.165zm-37.151.034c0-.081.098-.147.218-.147s.218.027.218.061-.098.1-.218.147c-.12.048-.218.02-.218-.061zm174.154.204c.314-.242.44-.267.44-.088 0 .068-.16.164-.358.212-.3.073-.313.053-.082-.124zm7.097.205a.541.541 0 0 1 .34-.14c.114 0 .206.063.206.14 0 .076-.154.14-.34.14-.188 0-.28-.064-.206-.14zm-5.129 0c0-.077.044-.14.097-.14.053 0 .157.063.231.14.075.076.031.14-.097.14-.127 0-.23-.064-.23-.14zm-11.895-.002c-.075-.077.018-.177.205-.223.188-.046.342-.17.342-.277 0-.107.098-.194.218-.194.285 0 .282.376 0 .488-.123.048-.165.146-.097.217.068.071-.022.13-.202.13-.18 0-.388-.064-.463-.14h-.003zm-1.854.002c0-.077.098-.14.218-.14s.218.063.218.14c0 .076-.098.14-.218.14s-.218-.064-.218-.14zm-.655 0c0-.077.098-.14.218-.14s.219.063.219.14c0 .076-.099.14-.219.14s-.218-.064-.218-.14zm40.157.217c0-.034.098-.1.218-.147.12-.048.218-.02.218.06 0 .082-.098.148-.218.148s-.218-.027-.218-.061zm-31.645.139c0-.034.098-.1.218-.147.12-.048.218-.02.218.061s-.098.147-.218.147-.218-.027-.218-.061zm-15.823-.078c.074-.076.32-.139.546-.139.226 0 .471.063.545.14.08.08-.147.138-.545.138s-.625-.057-.546-.139zm11.822.186c-.266-.17-.151-.317.181-.236.18.044.328.136.328.204 0 .146-.3.165-.51.032zm-14.223-.047c-.074-.076-.03-.139.097-.139s.23.063.23.14c0 .076-.043.138-.096.138-.052 0-.156-.062-.23-.139zm70.757 0c.063-.153.14-.278.173-.278.032 0 .11.125.172.278.07.174 0 .278-.172.278-.18 0-.244-.104-.173-.278zm-76.162.158c.508-.209.841-.258 1.191-.175.435.102.4.125-.339.213-.453.054-.99.133-1.191.175-.202.042-.05-.054.339-.213zm25.593.26c-.282-.117-.276-.136.041-.137.203-.002.43.06.504.137.17.176-.119.176-.546 0zm1.746.223c0-.03.147-.09.327-.135.18-.044.328-.02.328.055 0 .074-.148.135-.328.135-.18 0-.327-.025-.327-.055zm-23.703-.109c-.062-.064.04-.154.227-.2.187-.045.285-.139.219-.207-.067-.069.043-.125.243-.125.241 0 .319.074.23.22-.072.121-.132.267-.132.325 0 .143-.646.133-.787-.013zm29.873.219c.072-.046.26-.051.418-.011.174.044.123.077-.132.084-.23.006-.359-.027-.286-.073zm-19.483-.051c0-.189.388-.306.53-.16.067.07-.025.163-.204.206-.18.044-.326.023-.326-.046zm-7.5-.074c.07-.115.275-.208.457-.208.27 0 .28.038.06.208-.15.115-.356.209-.457.209-.102 0-.128-.094-.06-.209zm35.217.426c0-.034.098-.1.218-.148.12-.047.218-.02.218.062 0 .08-.098.147-.218.147s-.218-.028-.218-.061zm-24.644-.136c-.013-.147.042-.229.114-.183.073.047.08.167.017.267-.07.111-.121.078-.132-.084zm19.843.058c0-.153.089-.278.197-.278.109 0 .147.125.084.278-.063.153-.152.278-.198.278-.046 0-.083-.125-.083-.278zm-14.047.07a.505.505 0 0 1 .393-.21c.148 0 .268.095.268.21 0 .114-.177.208-.393.208-.26 0-.35-.07-.268-.208zm52.702-.126c-.498-.265-.817-.516-.709-.559.226-.09 1.914.85 1.733.965-.065.042-.526-.14-1.024-.406zm-6.246.334c-.075-.076-.038-.139.084-.139.12 0 .278.063.353.14.074.076.037.138-.084.138a.562.562 0 0 1-.353-.139zm-38.381-.07c.07-.114.164-.208.211-.208.048 0 .087.094.087.209a.21.21 0 0 1-.212.208c-.116 0-.154-.094-.086-.208zm-15.416.058c0-.08-.099-.105-.219-.057-.12.047-.218.02-.218-.062 0-.176.432-.189.837-.025.234.094.224.134-.055.202-.19.046-.345.02-.345-.058zm-1.746.012c0-.076.092-.139.205-.139.113 0 .266.063.34.14.074.076-.018.138-.205.138s-.34-.062-.34-.139zm63.96.081c-.208-.159-.182-.188.137-.15.216.027.571.053.789.06.51.013.251.288-.272.288-.219 0-.513-.089-.654-.198zm-2.707.105c-.25-.16-.158-.324.182-.324.18 0 .328.094.328.208 0 .218-.258.276-.51.116zm-46.904 0c.15-.038.396-.038.546 0 .15.039.027.07-.273.07-.3 0-.423-.031-.273-.07zm2.019.1c0-.08.098-.147.218-.147s.218.028.218.062c0 .033-.098.1-.218.147-.12.047-.218.02-.218-.061zm-13.968 0c0-.08.099-.147.219-.147s.218.028.218.062c0 .033-.098.1-.218.147-.12.047-.219.02-.219-.061zm59.523.254c.148-.095.324-.138.391-.095.067.043-.054.12-.27.173-.31.075-.335.06-.122-.078zm-2.343-.185c0-.322.063-.35.6-.268.33.05.643.116.695.144.15.083-.269.286-.804.39-.42.08-.49.043-.49-.266zm-.727.249c-.08-.051-.146-.158-.146-.237 0-.087.102-.079.258.02.143.091.208.198.146.237-.062.04-.178.03-.258-.02zm-1.837 0c-.36-.093-.353-.465.013-.465.154 0 .296.125.314.278.017.153.014.274-.013.268l-.314-.081zm-56.714.17c-.07-.115-.267-.164-.465-.115-.229.055-.292.029-.188-.079.234-.24.524-.198.787.116.129.153.178.278.11.278-.068 0-.178-.09-.244-.2zm20.65.2c-.378-.149-.173-.322.304-.256.201.028.272.115.175.214-.105.106-.278.121-.48.042zm37.494.323c.213-.055.185-.121-.11-.263-.35-.17-.287-.19.589-.186.773.003.882.03.513.125-.257.066-.533.187-.613.27-.08.081-.261.143-.404.137-.176-.007-.168-.034.024-.083h.001zM369.157 4.31c-.075-.078-.228-.106-.34-.062-.303.12-.246.203.137.203.187 0 .279-.064.203-.142zm.111 1.733c0-.182-.264-.262-.71-.218-.09.01-.178-.061-.196-.157-.094-.49-.072-.6.135-.693.123-.057 0-.104-.292-.105-.45-.002-.48-.031-.229-.224.244-.187.231-.243-.082-.355-.205-.072-.372-.195-.372-.273 0-.077.113-.095.252-.04.14.054.581.091.983.082.4-.01.73.043.73.117 0 .074.146.135.327.135.18 0 .327.062.327.139 0 .076-.098.139-.218.139s-.219.063-.219.14c0 .076.158.138.351.138.219 0 .304.077.228.204-.165.273.258.421 1.058.37.868-.054.519.137-.927.508-.932.239-1.146.256-1.146.093zm62.2.216c0-.076.043-.139.096-.139.053 0 .157.063.231.14.074.076.031.138-.096.138-.128 0-.232-.062-.232-.139zm-26.735-.204c-.695-.363-.514-.486.205-.14.485.235.867.272.668.066-.074-.077-.031-.14.096-.14.268 0 .279.038.098.337-.176.293-.297.28-1.068-.123zm-57.78.251c.15-.038.395-.038.545 0 .15.039.027.07-.273.07-.3 0-.422-.031-.272-.07zm-2.21-.162c-.097-.178-.123-.357-.058-.399.218-.139 1.253.1 1.103.255-.096.099.031.12.373.065l.519-.086-.516.169c-.436.142-.56.13-.801-.08-.266-.232-.29-.227-.365.076l-.08.324-.176-.324zm63.998.328c-.057-.036-.414-.08-.795-.099-.38-.018-.74-.113-.799-.21-.058-.098-.257-.14-.442-.095-.246.06-.33-.006-.318-.246.013-.18.067-.25.127-.154s.241.174.401.174c.16 0 .33.074.377.164.056.107.234.124.51.048.723-.197.968-.195.968.009 0 .108.098.196.219.196.12 0 .218.063.218.14 0 .143-.286.188-.466.073zm-65.553-.074c-.356-.097-.368-.121-.068-.13.203-.005.43.054.504.13.156.16.148.16-.436 0zm60.68.288c-.067-.071-.025-.169.098-.217.122-.048.221.01.221.13 0 .244-.13.28-.318.087zm-37.59.056c-.203-.138-.156-.194.22-.258 1.067-.183 1.446.025.53.29-.36.106-.562.097-.75-.032zm36.446.119c-.204-.338.18-.486.555-.213.2.145.51.3.69.346.18.045 0 .073-.408.06-.404-.012-.78-.099-.837-.193zm-40.306-.073c-.18-.176-.317-.54-.304-.807.013-.268.064-.409.114-.313.147.278 1.016.2 1.329-.119.158-.16.186-.253.063-.205-.122.049-.325-.032-.449-.18-.192-.229-.162-.258.2-.198.536.09.778.547.431.813-.144.111-.201.21-.127.22l.3.036c.303.036.709.24.709.355 0 .143-.822.492-1.461.621-.36.073-.56.017-.807-.223h.002zm55.955.504c0-.133.609-.477.844-.477.38 0 .536.304.22.431-.338.137-1.064.168-1.064.046zm-10.694-.051c0-.081.098-.147.218-.147s.218.027.218.061-.098.1-.218.147c-.12.048-.218.02-.218-.061zm7.42.127c0-.075.147-.135.327-.135.18 0 .328.024.328.054s-.147.091-.328.135c-.18.044-.327.02-.327-.054zm12.222.143c0-.077.093-.14.205-.14.114 0 .266.064.34.14.074.076-.017.14-.205.14-.187 0-.34-.064-.34-.14zm-18.551 0c-.18-.074-.23-.137-.11-.14.12-.002.071-.064-.11-.138-.279-.115-.271-.135.055-.137.21-.002.382-.069.382-.15 0-.08.098-.108.218-.061.252.1.3.766.054.763-.09-.002-.31-.063-.49-.137h.001zm-25.655-.104c-.091-.134-.151-.29-.132-.348.02-.057-.106-.104-.278-.104a.553.553 0 0 1-.451-.279c-.077-.153-.221-.278-.322-.278-.1 0-.135-.117-.076-.26.1-.242 1.303-.574 2.08-.574.342 0 1.193.522 1.1.675-.029.05.047.111.171.138.124.026.21-.005.193-.07-.124-.444.489-.608 1.42-.38.384.093.466.546.123.681-.122.048-.172.14-.11.202.06.063-.135.154-.434.202-.623.1-.732.352-.162.376.68.03-.896.229-1.94.246-.773.012-1.054-.042-1.181-.227zm-121.382.159c.073-.046.26-.051.418-.011.174.044.123.077-.131.084-.23.006-.36-.027-.287-.073zm153.803.223c0-.076.044-.139.096-.139.053 0 .157.063.231.14.074.076.031.138-.096.138-.128 0-.231-.062-.231-.139zm-.873 0c0-.076.092-.139.205-.139.113 0 .266.063.34.14.075.076-.018.138-.205.138s-.34-.062-.34-.139zm-1.091-.695c0-.077-.172-.138-.382-.137-.327.002-.335.022-.055.137.412.17.437.17.437 0zm-1.081.912a.769.769 0 0 0-.572-.124c-.172.042-.312.002-.312-.087 0-.296.446-.701.772-.701.375 0 .394-.07.108-.41-.176-.21-.125-.251.31-.251.353 0 .484.062.406.191-.123.205.12.243.677.107.189-.046.29-.14.223-.208-.067-.069-.027-.125.086-.125.346 0 .508.456.208.585-.83.355-1.08.404-1.35.262-.197-.105-.395-.088-.694.06-.331.163-.342.19-.05.125.202-.045.53-.024.728.047.324.116.327.15.023.343-.185.118-.275.253-.201.3.075.048.081.086.016.086s-.236-.09-.38-.2h.002zm-30.183.108c.15-.038.396-.038.546 0 .15.039.027.07-.273.07-.3 0-.423-.031-.273-.07zm10.916.179c-.513-.248-.58-.777-.124-.966.53-.22 1.59.042 1.608.396.036.68-.684.957-1.484.57zm-5.569.1c-.15-.039-.273-.187-.273-.329 0-.142-.094-.295-.208-.34-.238-.094-.05-.51.301-.663.45-.196 1.94-.11 2.377.137.316.178.457.197.527.07.133-.244 1.04-.218 1.374.04.226.172.224.277-.013.555-.158.19-.394.348-.524.353-.13.006-.04.064.2.13.385.105.364.12-.176.129-.415.006-.562-.043-.455-.153.106-.11.039-.134-.205-.074-.2.049-.363.039-.363-.023 0-.155-.67-.104-1.241.094-.496.172-.86.193-1.324.074h.003zm-99.296.008c.072-.046.26-.051.418-.011.174.044.122.077-.132.084-.23.005-.359-.027-.286-.073zm118.864-.096c-.178-.25-.182-.418-.013-.605.13-.142.24-.18.243-.085 0 .096.172.174.375.174.322 0 .315.026-.054.205-.413.199-.411.204.067.208.27.003.491.067.491.144 0 .076-.04.139-.091.139-.05 0-.245.037-.432.083-.225.055-.423-.034-.587-.263h.001zm-119.796.188c0-.081.098-.147.218-.147s.218.027.218.061-.098.1-.218.147c-.12.048-.218.02-.218-.061zm102.023.125c-.071-.073.073-.133.32-.133.527 0 .58.077.129.187-.176.044-.378.019-.45-.054zm-30.817.06c.072-.045.261-.05.419-.01.174.044.122.077-.132.084-.23.006-.36-.027-.287-.073zm-7.26-.046c0-.08.097-.147.217-.147s.219.027.219.061-.098.1-.219.147c-.12.048-.218.02-.218-.06zm58.052.131c0-.077.082-.14.183-.14.1 0 .295-.156.432-.347.186-.26.186-.348 0-.348-.138 0-.199-.032-.136-.072.216-.138.789.092.899.36.06.148.291.27.512.27.293 0 .232.057-.222.208-.713.237-1.667.276-1.667.069h-.001zm-56.248.055c.072-.046.26-.051.418-.011.175.044.123.077-.131.084-.23.006-.36-.027-.287-.073zm32.737.14c.072-.047.26-.052.418-.012.174.044.122.077-.132.084-.23.006-.359-.027-.286-.073zm28.312-.06c0-.357.553-.501 1.005-.262.312.165.307.199-.044.363-.566.264-.96.222-.96-.101zm-17.654.032c-.369-.439-.29-.836.2-1.003.896-.306 1.264.313.532.898-.481.385-.495.387-.732.105zm-25.122.196c0-.03.153-.092.34-.138.193-.047.281-.024.204.055-.127.132-.544.195-.544.083zm-10.039-.072c0-.07.197-.093.437-.053s.436.097.436.126c0 .03-.196.053-.436.053s-.437-.057-.437-.126zm5.02.126c.78-.159 1.091-.159 1.091 0 0 .077-.368.133-.818.125-.73-.012-.76-.025-.273-.125zm55.322.137c-.2-.206-.013-.311.456-.253.341.042.345.065.036.227-.245.13-.384.137-.492.026zm-15.054.005c-.076-.078.015-.142.203-.142.384 0 .44.084.137.203-.112.044-.265.016-.34-.061zm7.586.47c.073-.046.261-.051.419-.011.174.044.122.077-.132.084-.23.006-.36-.027-.287-.073zm37.752 1.857c.073-.233.407-.377.88-.38.323-.003.35.046.157.276-.254.301-1.126.39-1.037.104zm-1.305.646c.072-.046.26-.05.418-.01.174.044.123.077-.132.084-.23.005-.359-.027-.286-.074zm-427.32 3.06c.072-.046.26-.05.417-.01.175.044.123.077-.131.084-.23.005-.36-.027-.287-.074zm462.084 1.862c-.292-.265-.296-.335-.031-.504.37-.236 1.33-.12 1.512.182.14.233-.39.631-.843.631-.165 0-.452-.139-.638-.309zm-464.217.309c-.288-.079-.325-.122-.11-.127.18-.004.475.053.655.127.4.164.055.164-.545 0zm441.78.603c.15-.038.395-.038.545 0 .15.039.027.07-.273.07-.3 0-.423-.031-.273-.07zm3.51.12c-.32-.024-.636-.134-.703-.244-.093-.154.081-.2.745-.2.489 0 .867.066.867.153 0 .1.215.12.6.058 1.18-.19 2.28-.23 2.134-.08-.077.08-.044.146.078.146a.56.56 0 0 0 .351-.137c.074-.076.497-.13.94-.119.445.011 1.04-.027 1.326-.085.366-.075.473-.059.364.054-.11.112.028.134.463.073.437-.061.53-.046.314.05-.248.111-.228.149.11.204.707.115-6.181.23-7.588.126h-.002zm-11.968 1.78c0-.174.232-.174.655 0 .265.11.233.136-.164.138-.27.001-.49-.06-.49-.137zm-428.74 0a.562.562 0 0 1 .354-.138c.12 0 .157.062.083.139a.562.562 0 0 1-.353.139c-.12 0-.157-.063-.083-.14zm-5.069 1.725c.073-.046.261-.051.418-.011.175.044.123.077-.131.084-.23.006-.36-.027-.287-.073zm1.905.092c0-.081.099-.147.219-.147s.218.027.218.061-.098.1-.218.147c-.12.048-.219.02-.219-.061zm.4 1.706c-.2-.033-.422-.16-.495-.281-.115-.192.03-.208 1.116-.127 1.393.105 1.626.179 1.155.368-.327.132-1.123.15-1.775.04zm2.656.098c0-.078.301-.1.709-.05.995.12 1.026.185.09.185-.44 0-.8-.06-.8-.135zm442.211.387c.048-.09.203-.19.346-.22.16-.034.208.03.126.165-.152.253-.603.306-.472.055zm-5.883 2.168c.072-.046.26-.051.418-.011.174.044.122.077-.132.084-.23.006-.359-.027-.286-.073zm-435.455.077c-.235-.102-.08-.116.545-.05 1.083.116 1.257.197.419.194-.35-.002-.784-.066-.964-.145zm-1.528.146c-.523-.107-.526-.112-.055-.125.27-.008.557-.03.637-.049.08-.02.186.043.236.14.101.192-.019.197-.818.034zm442.38 1.252c-.267-.11-.238-.136.15-.137.263-.002.54.06.613.137.172.177-.333.177-.763 0zm-433.591.055c.072-.046.26-.051.418-.011.174.044.122.077-.132.084-.23.006-.359-.027-.286-.073zm432.881.409c.15-.039.396-.039.546 0 .15.039.027.07-.273.07-.3 0-.423-.031-.273-.07zM50.037 30.099c.072-.046.26-.05.418-.01.174.044.123.077-.132.083-.23.006-.359-.027-.286-.073zm414.167.363c0-.077.044-.14.097-.14.053 0 .157.063.23.14.076.076.032.139-.096.139-.127 0-.231-.063-.231-.14zm-4.742.194c.072-.046.26-.051.418-.011.174.044.122.077-.132.084-.23.006-.359-.027-.286-.073zm-1.21-.008c.148-.038.443-.04.655-.005.213.036.092.067-.268.07-.36.002-.534-.026-.386-.064zm6.28.23c-.074-.076.066-.138.314-.138.247 0 .45.062.45.139 0 .076-.142.139-.315.139-.173 0-.376-.063-.45-.14zm-424.812.704c0-.072.09-.166.199-.209.282-.111.914.066.77.215-.161.166-.969.16-.969-.006zm-4.96 1.02c.072-.046.26-.05.418-.01.174.044.122.077-.132.084-.23.005-.359-.027-.286-.073zm12.322 2.358c.148-.038.442-.04.655-.005.212.035.091.066-.269.07-.36.002-.534-.027-.386-.065zm-15.218.96c0-.157 2.58-.186 2.731-.03.08.082-.43.135-1.3.135-.787 0-1.431-.047-1.431-.105zm-24.385.994c.073-.046.261-.05.419-.01.174.044.122.077-.132.083-.23.006-.36-.026-.287-.073zm-1.708-.042c.067-.069.318-.093.558-.053.6.1.547.18-.122.18-.307 0-.503-.057-.436-.127zm-2.606-.013c-.54-.087-.445-.107.545-.113.856-.004 1.075.028.764.113-.505.139-.457.139-1.31 0zm450.622 1.168c.073-.046.261-.051.419-.01.174.044.122.076-.132.083-.23.006-.36-.027-.287-.073zm-441.895.082c-.17-.176 1.764-.27 2.589-.125.438.077.796.172.796.21 0 .11-3.275.028-3.385-.085zm10.478.559c.24-.066.584-.12.764-.12.206 0 .166.044-.11.12-.24.065-.583.12-.763.12-.206 0-.166-.045.11-.12h-.001zm4.52 1.64c-1.071-.18-.63-.421.574-.312.56.05 1.33.086 1.714.078.605-.012 1.273.227.789.283-.695.08-2.483.051-3.076-.049zm-14.566.049c-.21-.126-.32-.157-.243-.069.094.108-.108.156-.624.146-.86-.015-1.064-.236-.217-.236.3 0 .545-.06.545-.133 0-.128.876-.275 1.91-.322.27-.012.49-.062.49-.11 0-.05.879-.086 1.951-.083 1.113.004 1.898.061 1.828.134-.071.073.094.08.396.016.56-.118.545-.118 2.482.008.72.047 1.776.081 2.346.076.57-.005 1.037.053 1.037.128 0 .076.148.102.328.057.403-.098 1.418.052 1.418.21 0 .063-1.61.112-3.58.108-2.558-.005-3.672.042-3.908.167-.23.121-1.15.167-3.053.152-2.196-.016-2.798-.065-3.106-.25zm438.349.675c0-.076.093-.139.205-.139.114 0 .266.063.34.14.074.076-.017.138-.205.138-.187 0-.34-.062-.34-.139zm-420.228.696c-.074-.077-.03-.14.096-.14.127 0 .231.063.231.14 0 .076-.043.139-.096.139-.053 0-.157-.063-.231-.14zm-1.091 0c-.421-.116-.42-.12.042-.13.263-.005.538.053.613.13.16.164-.054.164-.655 0zm-1.2.147c0-.081.098-.147.218-.147s.218.027.218.061-.098.1-.218.147c-.12.048-.219.02-.219-.061zm-6.194-.035c.05-.053-.269-.059-.71-.013-.545.056-.756.035-.658-.066.19-.197 5.16-.23 5.16-.035 0 .078-.318.15-.709.161-1.98.057-3.167.04-3.083-.047zM34.7 42c0-.091-.286-.112-.763-.055-.5.06-.764.038-.764-.063 0-.087.373-.154.855-.154.47 0 1.035-.037 1.255-.081.377-.076.378-.07.021.118-.208.11-.314.24-.236.29.078.05.027.09-.113.09s-.254-.065-.254-.145zm-14.403.23c0-.029.196-.085.436-.125.24-.04.382-.017.315.053-.118.121-.751.182-.751.073zm-4.802.696c0-.03.197-.086.437-.126.24-.04.382-.016.315.053-.118.121-.752.183-.752.073zm-3.928.881c0-.068.147-.087.327-.043.18.044.328.026.328-.04 0-.065.245-.128.545-.139.3-.01.546.044.546.122 0 .084.128.073.316-.026.226-.12.427-.126.71-.021.369.137.366.147-.044.164-2.154.093-2.728.09-2.728-.017zm-5.873.018a1.351 1.351 0 0 0-.655-.055c-.275.056-.285.042-.05-.065.334-.152 1.122-.064 1.122.125 0 .15-.03.15-.417-.006zm.635.128c0-.076.172-.143.382-.149.324-.008.316-.026-.055-.122-.405-.104-.397-.116.11-.167.3-.03.937-.012 1.415.04.479.052 1.037.038 1.24-.032.205-.07.55-.122.768-.116.233.007.082.092-.368.21l-.764.197.716-.046c.473-.03.643 0 .5.092-.29.185-2.274.157-2.373-.034-.044-.083-.175-.151-.292-.151-.117 0-.159.056-.093.124.067.069-.034.163-.223.209-.518.127-.963.101-.963-.055zm30.714.187c.147-.038.442-.04.654-.005.213.035.092.066-.268.07-.36.002-.534-.027-.386-.065zm-2.114 3.158c-.174-.07-.616-.099-.982-.064-.64.062-.645.059-.125-.085.575-.16 2.104-.058 2.309.154.16.165-.79.161-1.202-.005zm-4.477-.002c-.323-.075-.19-.12.537-.182.531-.046 1.117-.021 1.302.054.259.105.225.117-.146.052-.266-.046-.659-.025-.873.046a1.796 1.796 0 0 1-.82.03zm-11.187 1.858c.072-.046.26-.051.418-.01.174.044.122.076-.132.083-.23.006-.359-.027-.286-.073zm1.468.362c-.508-.103-.512-.112-.067-.125.263-.007.539.049.613.125.074.077.104.133.067.126l-.613-.126zM6.388 51.241c.073-.047.26-.052.418-.011.175.044.123.077-.131.084-.23.005-.36-.027-.287-.073zm.541.965c.15-.038.396-.038.546 0 .15.039.027.07-.273.07-.3 0-.423-.031-.273-.07zm-3.328 1.9c-.332-.09-.202-.121.546-.127.54-.004 1.129.053 1.31.127.422.174-1.22.174-1.856 0zm-.626 2.256c-.058-.06.083-.11.315-.11.23 0 .42.05.42.11s-.141.109-.314.109c-.173 0-.363-.05-.42-.11zm12.193.526c-.377-.104-.354-.118.164-.1.33.012.6.07.6.13 0 .134-.196.126-.764-.03zm-9.821-.139c-.384-.27-.381-.278.088-.278.266 0 .423.062.35.137-.077.08.012.103.205.055.187-.045.339-.018.339.062s.27.17.6.203c.44.042.36.063-.293.078-.646.016-1.004-.056-1.29-.257h.001zm-3.158.273c.277-.112.278-.13.004-.132-.252-.001-.26-.037-.045-.174.216-.138.307-.136.448.01.111.115.453.16.919.122.407-.033.569-.033.359 0-.21.033-.383.103-.383.155 0 .052-.366.107-.812.121-.572.02-.716-.01-.49-.102zm13.437.32c-.233-.148-1.893-.444-1.767-.314.148.153-.319.237-1.092.196-.36-.02-.998-.044-1.418-.055-.698-.018-.72-.031-.258-.15.278-.07.935-.147 1.46-.168.526-.022 1.027-.085 1.114-.14.259-.166.903-.114 1.02.081.115.19 1.545.515 2.254.511.346-.002.359-.023.084-.137-.248-.102-.156-.135.382-.137.486-.001.71.064.71.207 0 .115-.154.209-.341.209-.209 0-.28-.068-.186-.174.123-.14.095-.14-.14 0-.319.188-1.562.237-1.822.072zm-1.163.019c.073-.047.26-.052.418-.011.175.044.123.077-.131.084-.23.005-.36-.027-.287-.073zm8.512.417c.072-.046.26-.051.418-.011.174.044.122.077-.132.084-.23.006-.359-.027-.286-.073zm-14.463.084c-.265-.11-.234-.135.163-.137.27-.002.491.06.491.137 0 .174-.231.174-.654 0zm-1.033.055c.073-.046.261-.051.419-.011.174.044.122.077-.132.084-.23.006-.36-.027-.287-.073zm7.962.131c.15-.039.395-.039.545 0 .15.039.028.07-.272.07-.3 0-.423-.031-.273-.07zm-3.16.008c.072-.046.26-.051.418-.01.174.044.122.076-.132.083-.23.006-.359-.027-.286-.073zm-11.08.086c-.076-.08.012-.102.206-.055.378.093.448.192.134.192a.54.54 0 0 1-.34-.137zm10.802.541c0-.11 3.29-.022 3.473.094.063.04-.692.058-1.678.04-.987-.019-1.795-.079-1.795-.134zm-2.891.06c.15-.038.395-.038.545 0 .15.04.028.07-.273.07-.3 0-.422-.03-.272-.07zM0 64.764c0-.03.197-.086.437-.126.24-.04.382-.016.314.053-.117.122-.751.183-.751.073zm.873 2.28c-.45-.093-.469-.114-.11-.124.24-.007.585.049.765.123.382.158.117.158-.655 0zm3.055 2.78c0-.076.221-.137.491-.136.398.002.429.028.164.137-.423.174-.655.174-.655 0zm6.389 1.586c.072-.046.26-.051.418-.011.174.044.122.077-.132.084-.23.006-.359-.027-.286-.073zm411.111 3.84c0-.077.098-.14.219-.14.12 0 .218.063.218.14 0 .076-.098.139-.218.139s-.219-.063-.219-.14zm19.097.973a.56.56 0 0 1 .353-.139c.12 0 .157.063.083.14a.563.563 0 0 1-.353.138c-.12 0-.157-.062-.083-.139zm-197.074.696c-.275-.076-.316-.12-.11-.12.18 0 .524.054.764.12.275.075.316.12.11.12-.18 0-.524-.055-.764-.12zm-71.652-72.84c-.158-.041-.346-.036-.419.01-.072.046.057.08.287.073.254-.006.306-.04.132-.084zm.781.79c-.314-.321-.822-.371-.822-.081 0 .197.306.327.82.348.22.009.22-.044.004-.267h-.002zm.596.695a.543.543 0 0 0-.34-.139c-.113 0-.205.063-.205.14 0 .076.153.138.34.138.187 0 .28-.062.205-.139zm-.982-.086c0-.194-.055-.2-.382-.04-.21.103-.423.204-.473.226-.05.022.122.04.382.04.291 0 .473-.088.473-.226zm53.797.503c.074-.076.037-.139-.083-.139a.562.562 0 0 0-.353.14c-.074.076-.037.139.083.139s.279-.063.353-.14zm-24.443 0c.074-.076-.073-.139-.327-.139-.255 0-.402.063-.328.14.074.076.222.139.328.139a.524.524 0 0 0 .327-.14zm-6.438 0c0-.076-.099-.139-.219-.139s-.218.063-.218.14c0 .076.098.139.218.139s.219-.063.219-.14zm-16.041 0a.562.562 0 0 0-.353-.139c-.12 0-.158.063-.084.14.075.076.233.139.354.139.12 0 .157-.063.083-.14zm-6.002.07c-.15-.115-.382-.207-.518-.204-.135.002-.055.096.178.208.544.263.685.261.34-.004zm25.535.209c0-.077-.099-.14-.219-.14s-.218.063-.218.14c0 .076.098.139.218.139s.219-.063.219-.14zm-11.786-.014c.25-.113.182-.127-.293-.061-.374.052-.765.015-.982-.093-.323-.16-.33-.154-.062.063.339.275.853.31 1.337.091zm2.66.197c-.157-.04-.345-.035-.418.01-.072.047.056.08.286.074.255-.007.306-.04.132-.084zm11.09.234c0-.076-.098-.14-.218-.14s-.219.064-.219.14c0 .077.099.14.219.14s.218-.063.218-.14zm-6.33-.078c0-.033-.097-.061-.217-.061s-.219.066-.219.147c0 .081.098.109.219.062.12-.048.218-.114.218-.148zm-9.056.078c.074-.076.088-.14.03-.14-.057 0-.26-.037-.451-.084-.255-.062-.312-.025-.213.139.153.254.434.291.634.085zm-9.362-.101c-.073-.047-.124.036-.115.182.01.162.062.195.132.084.063-.1.055-.22-.017-.266zm-5.915.518a.562.562 0 0 0-.354-.139c-.12 0-.157.063-.083.14.074.076.233.138.353.138.12 0 .158-.062.084-.139zm-1.419 0c0-.076-.104-.139-.231-.139s-.17.063-.096.14c.074.076.178.138.23.138.054 0 .097-.062.097-.139zm50.555.07c-.18-.115-.396-.209-.48-.209-.083 0-.028.094.121.209.15.115.365.209.479.209.114 0 .06-.094-.12-.21zm-1.232.031c0-.072-.14-.096-.313-.054s-.346.014-.386-.062c-.042-.08-.258-.094-.505-.034-.402.099-.394.112.113.191.778.121 1.091.11 1.091-.04zm-9.738-.176a.184.184 0 0 0-.093-.276c-.321-.127-.247-.344.12-.344.18 0 .326-.052.326-.116 0-.248-.273-.269-.673-.05-.508.277-.6 1.175-.107 1.055.17-.042.363-.163.427-.27zm-4.914-.03c-.035-.21.013-.46.105-.555.093-.096.112-.232.044-.303-.07-.071.097-.16.369-.195.271-.037.101-.057-.38-.045-.755.018-.87.063-.855.334.01.172-.088.315-.218.318-.13.002-.015.122.256.265.27.144.49.33.49.413 0 .083.057.152.126.152.07 0 .097-.173.063-.383zm-2.698.244c.074-.076.036-.139-.084-.139a.562.562 0 0 0-.353.14c-.074.076-.037.138.084.138.12 0 .278-.062.353-.139zm29.853-.139c-.063-.153-.2-.278-.307-.278-.264 0-.243.242.03.35.121.047.155.155.075.238-.083.085-.046.11.085.06.127-.05.18-.217.117-.37zm-29.703.6c-.158-.04-.346-.034-.419.012-.072.046.057.079.287.073.254-.007.306-.04.132-.084zm-3.971-.67c-.117-.09-.148-.205-.07-.255.08-.05.03-.092-.11-.092s-.255.087-.255.193c0 .118-.3.216-.764.25-.542.041-.764.003-.764-.131 0-.104-.089-.154-.197-.111-.114.044-.091.223.054.419.192.26.37.323.743.263.287-.046.491-.015.491.075 0 .084.244.018.543-.147.374-.208.476-.351.329-.464zm9.713.766c.074-.077.038-.14-.08-.14s-.252-.109-.297-.243c-.056-.168-.119-.125-.204.14-.122.382.282.551.581.243zm-1.2-.014c0-.069-.123-.126-.273-.127-.175-.002-.192-.039-.047-.105.274-.124.289-.867.017-.867-.107 0-.314-.104-.46-.231a.722.722 0 0 0-.649-.138c-.312.077-.333.133-.114.301.149.114.211.207.14.207-.072 0-.041.15.069.335.172.289.126.346-.333.42-.911.146-.585.342.559.337.6-.003 1.09-.062 1.09-.132zm-13.038.061c-.178-.045-.206-.15-.083-.302.103-.127.16-.342.126-.475-.033-.134.04-.244.165-.244.135 0 .116-.084-.046-.208-.222-.17-.21-.21.064-.21.185 0 .377.08.428.175.071.135.172.131.455-.018.227-.12.608-.16 1.017-.107.77.098.804.042.218-.36-.24-.164-.436-.224-.436-.133s-.154.166-.34.166c-.188 0-.288-.055-.223-.121.243-.252-1.725-.097-2.058.16-.42.326-1.086.19-.93-.187.13-.321-.082-.336-1.062-.072l-.734.198.614.15c.338.082.712.15.831.15.12 0 .171.048.115.106-.183.188.414.568.852.544.51-.029.734.575.28.758-.195.079-.076.115.363.109.36-.005.533-.04.384-.079zm-23.19-.047c0-.077-.105-.14-.232-.14s-.17.063-.096.14c.074.076.178.139.231.139.053 0 .097-.063.097-.14zm29.216.15c.226-.009.24-.057.057-.198-.296-.227-.108-.37.488-.37.345 0 .385-.036.182-.166-.144-.092-.262-.273-.262-.401 0-.13-.207-.269-.46-.311-.39-.065-.443-.026-.357.262.056.186.005.338-.112.338s-.16.13-.096.287c.072.176-.004.316-.193.363-.442.108-.385.309.072.253.21-.026.516-.052.681-.057zm-1.281-.089c0-.034-.099-.061-.219-.061s-.218.066-.218.147c0 .081.098.109.218.061.12-.047.219-.113.219-.147zm-9.777.09c.557-.082.844-.07.922.039.063.087.091.001.064-.19-.035-.248.122-.417.551-.59.755-.302.788-.558.058-.441a14.71 14.71 0 0 1-1.522.11c-1.14.027-1.634.246-1.24.55.142.108.196.298.121.423-.155.257-.072.265 1.046.1zm-7.683-.077c0-.125.128-.173.328-.124.456.111 1.464-.068 1.305-.232-.072-.075-.004-.14.155-.146.22-.009.223-.028.013-.081-.55-.142-.281-.446.382-.434.594.01.986.247.41.247-.17 0-.161.065.026.21.15.114.395.208.546.208.15 0 .396-.094.545-.209.223-.17.208-.209-.082-.209-.195 0-.354-.093-.354-.208 0-.115.074-.209.164-.209.295 0 1.39.974 1.253 1.115-.145.15-.105.16.905.214.6.032.681-.004.655-.297-.023-.25-.126-.314-.413-.256-.28.057-.382 0-.382-.21 0-.158-.09-.288-.202-.288-.112 0-.36-.1-.55-.221a1.981 1.981 0 0 0-.725-.26c-.231-.022-.354-.139-.318-.3.053-.229.033-.233-.158-.037-.142.146-.41.201-.765.158-.302-.037-.721-.018-.933.041-.488.137-.636.163-1.04.185-.18.01-.328.083-.328.164s.082.115.182.076c.1-.04.182.017.182.125s-.126.227-.28.265c-.175.043-.235-.008-.159-.133.08-.132-.019-.201-.284-.2-.631.004-1.034.218-.818.435.2.2.233.274.277.606.035.27.463.274.463.005zm43.552.077c-.251-.259-.523-.166-.4.136.078.188.193.24.333.151.117-.074.147-.204.066-.287zm-30.675.266c0-.076-.099-.139-.219-.139s-.218.063-.218.14c0 .076.098.138.218.138s.219-.062.219-.139zm-21.825.008c0-.072-.082-.163-.182-.202-.1-.04-.182.02-.182.13 0 .112.082.203.182.203.1 0 .182-.059.182-.13zm37.32.131c0-.076-.098-.139-.218-.139s-.219.063-.219.14c0 .076.099.138.219.138s.218-.062.218-.139zm-12.817-.13c.13-.315.004-.427-.478-.424-.277.002-.287.026-.05.122.207.083.224.148.055.214-.339.134-.3.357.06.357a.48.48 0 0 0 .413-.27zm23.758.109c.456-.335.49-.396.223-.396-.308 0-1.127.509-.975.605.218.14.314.113.752-.209zm-16.79-.225c.387-.507.198-1.33-.262-1.143-.18.073-.23.135-.11.137.125.003.114.049-.024.107-.333.14-.604.728-.337.728.118 0 .188.155.155.344-.072.418.186.34.578-.173zm68.962.569c-.157-.04-.346-.036-.418.01-.073.047.056.08.286.074.255-.007.306-.04.132-.084zm-74.52-.002a1.944 1.944 0 0 0-.655.005c-.148.038.026.067.386.064.36-.003.48-.034.268-.07v.001zm4.016.111c-.25-.101-.25-.13 0-.187.164-.037.238-.109.165-.16-.072-.05-.296-.051-.496-.002-.283.069-.308.132-.114.281.138.106.362.192.497.19.144-.001.123-.051-.052-.122zm-14.815-.05a.648.648 0 0 1-.055-.251c0-.081-.1-.108-.222-.06s-.165.146-.096.217c.069.071.021.13-.106.13s-.23-.063-.23-.14c0-.076-.243-.139-.54-.139-.363 0-.501.062-.425.189.118.196 1.776.25 1.673.055zm7.147.097c0-.034-.098-.062-.218-.062s-.218.067-.218.148c0 .08.098.108.218.061s.218-.114.218-.147zm-1.6-.141c0-.11-.082-.199-.182-.199-.1 0-.182-.118-.182-.263 0-.145-.147-.3-.327-.343-.378-.093-.448.125-.086.268.172.068.166.125-.024.2-.412.161-.061.679.408.6.216-.035.392-.154.392-.263zm168.815.402c-.157-.04-.345-.036-.418.01-.072.047.057.08.287.074.254-.007.306-.04.131-.084zM214.62 8.96c.239-.396.125-.55-.202-.275-.176.149-.32.32-.32.383 0 .199.385.12.522-.108zm-38.574-.616c-.094-.38-.059-.408.427-.33.448.072.505.045.376-.174-.132-.225-.106-.235.203-.075.402.208.276.58-.195.58-.214 0-.287.121-.233.383.06.284.216.393.608.421.46.034.48.02.146-.111-.409-.16-.525-.553-.163-.553.12 0 .218.067.218.148 0 .088.202.112.491.06.291-.052.385-.04.23.03-.432.194-.005.416.588.307.3-.055.432-.106.293-.114-.274-.015-.274-.256 0-.535.109-.112.047-.174-.17-.174-.187 0-.34.062-.34.139 0 .235-.31.146-.709-.204-.346-.303-.35-.354-.039-.552.198-.126.238-.218.096-.218-.136 0-.187-.062-.113-.139.09-.092-.057-.092-.437 0-.74.18-.763.178-.763-.07a.214.214 0 0 0-.218-.208c-.12 0-.218.081-.218.18 0 .127-.36.18-1.2.176-.852-.002-1.2-.058-1.2-.19 0-.122.148-.155.436-.097.25.051.436.025.436-.06 0-.081-.19-.148-.423-.148-.562 0-.777-.24-.289-.321.235-.04.146-.07-.228-.08-.387-.01-.56.039-.468.133.16.165-.44.575-1.065.727-.578.14-.317.448.366.43.319-.008.58.001.58.02 0 .02-.344.166-.764.324-.85.32-.995.575-.328.575.3 0 .437-.093.437-.295 0-.25.05-.268.337-.117.186.098.291.255.235.349-.068.112.045.146.33.098.26-.043.385-.15.314-.267-.065-.108.034-.233.219-.278.185-.045.283-.17.218-.278-.163-.271.295-.35 1.075-.186.64.135.64.137.054.089-.76-.063-.773.095-.026.311.316.092.51.208.433.257-.078.05-.246.023-.374-.059-.266-.169-1.07-.076-1.07.123 0 .073.183.096.406.05.235-.047.523.008.682.13.224.172.22.213-.024.216-.2.003-.157.074.127.21.377.182.448.182.613-.006.102-.117.14-.399.083-.627zm33.032.767c0-.115-.104-.209-.23-.209-.128 0-.176.058-.107.129.068.07-.049.157-.26.192-.293.049-.267.068.106.08.303.01.491-.064.491-.192zm-18.449.118c-.432-.201-.792-.19-.906.03-.037.071.244.137.625.146.64.015.662.002.281-.176zm-14.67.137a1.302 1.302 0 0 0-.545 0c-.15.039-.027.07.273.07.3 0 .423-.031.273-.07zm-1.145-.038c0-.072-.082-.164-.182-.203-.1-.04-.182.02-.182.13 0 .112.082.203.182.203.1 0 .182-.058.182-.13zm212.46.13c-.073-.076-.178-.139-.23-.139-.054 0-.098.063-.098.14 0 .076.105.139.231.139.128 0 .171-.063.097-.14zm-243.568.009c.07-.072-.072-.121-.314-.11-.243.012-.441.07-.441.131 0 .154.602.137.755-.021zm242.409.175c-.158-.04-.346-.036-.419.01-.072.047.057.08.287.074.254-.007.306-.04.132-.084zm-6.152-.044c0-.077-.172-.139-.382-.137-.326.002-.334.021-.054.137.412.17.436.17.436 0zm-3.274.085c0-.029-.196-.086-.436-.126-.24-.04-.382-.016-.315.054.117.12.751.182.751.072zm-3.842-.166c.182-.303.17-.337-.123-.337-.14 0-.19.041-.11.092.078.05.033.175-.1.278-.153.117-.16.187-.022.187.121 0 .281-.1.354-.22zm-18.2.08c0-.076-.105-.139-.231-.139-.128 0-.17.063-.097.14.075.076.178.139.231.139.053 0 .097-.063.097-.14zm-155.171-.054c0-.107-.148-.23-.328-.274-.222-.054-.327.007-.327.194 0 .15.147.274.327.274.18 0 .328-.088.328-.194zm6.874.194c-.074-.077-.178-.14-.23-.14-.054 0-.097.063-.097.14 0 .076.104.139.231.139s.17-.063.096-.14zm-5.665-.13c-.08-.082-.31-.147-.513-.144-.324.003-.318.03.052.207.448.216.699.182.461-.063zm-2.187-.14c-.08-.16-.23-.258-.333-.217a.32.32 0 0 1-.32-.063c-.073-.076.135-.18.463-.233.578-.092.582-.1.118-.208-.263-.062-.478-.209-.478-.326 0-.236-.12-.248-.764-.08-.4.106-.405.123-.055.214.44.115.514.57.11.673-.163.042-.12.075.109.081.21.006.382.074.382.15 0 .077.147.14.327.14.18 0 .328.073.328.162 0 .09.058.125.129.08.07-.045.063-.213-.016-.373zm191.813.464c.47-.115.212-.336-.376-.322-.263.006-.355.042-.204.081.15.039.218.128.15.198-.144.148-.043.158.43.043zm-203.46-.138c.403-.159-.275-.613-.914-.613-.679 0-.88.23-.321.367.18.044.268.14.196.214-.071.073-.264.1-.428.06-.164-.04-.366-.003-.448.082-.106.11.126.126.79.058.518-.052 1.024-.128 1.126-.168zm-3.416-.613c-.074-.076-.031-.139.096-.139s.231.063.231.14c0 .076-.043.138-.096.138-.053 0-.157-.062-.231-.139zm.37.728c-.22-.047-.204-.137.077-.41.303-.294.313-.38.064-.538-.337-.215-1.348-.107-1.128.12.089.092.007.114-.214.06a.73.73 0 0 0-.656.184c-.434.396-.625.168-.248-.297.285-.35.284-.386-.008-.315-.18.044-.278.132-.217.195.06.063-.078.152-.309.2-.23.046-.478.182-.55.303-.092.15-.036.195.179.142.17-.041.652.035 1.068.17a5.818 5.818 0 0 0 1.492.247c.404 0 .607-.028.45-.06zm-2.553-.032c.171-.176-.118-.176-.545 0-.282.116-.277.135.041.137.203.001.43-.06.504-.137zm-1.055-.377c0-.221-.409-.234-.74-.023-.181.115-.18.2.005.325.28.191.737.004.737-.302h-.002zm22.34.418c.29.048.391-.006.369-.196-.017-.144-.133-.264-.258-.265-.124-.001-.079-.063.101-.137.291-.12.291-.135 0-.139-.28-.003-.283-.022-.014-.13.26-.105.264-.164.028-.346-.157-.12-.44-.22-.63-.22-.268 0-.286.038-.082.168.329.21.344.438.02.31-.163-.064-.193.002-.094.2.099.2.053.297-.14.299-.214.001-.204.04.04.15.255.115.195.134-.274.086-.663-.067-.653-.072-.469.234.103.171.224.186.568.069.24-.082.616-.12.836-.083zm-12.01.098c0-.077-.152-.14-.34-.14-.187 0-.28.063-.205.14.074.076.227.139.34.139.113 0 .206-.063.206-.14zm10.258.139c0-.077-.147-.14-.327-.14-.18 0-.328.063-.328.14 0 .076.148.139.328.139.18 0 .327-.063.327-.14zm-1.698.061c-.268-.12-.606-.169-.755-.11-.184.072-.096.137.273.203.887.157.995.136.482-.093zm-54.39.03c0-.102.245-.257.545-.344.538-.156.784-.72.315-.72-.128 0-.161.071-.076.16.094.097.06.123-.086.065-.133-.052-.492-.055-.798-.006-.554.088-.695.36-.423.812.161.268.522.291.522.034zm194.495.231c-.157-.04-.345-.035-.418.011-.073.046.056.08.287.073.254-.006.305-.04.131-.084zm-133.656-.183c-.15-.153-.421-.28-.602-.28-.293-.003-.293-.02-.004-.152.263-.12.232-.135-.16-.08-.414.057-.456.03-.277-.183.174-.207.139-.24-.196-.183-.267.044-.372.155-.304.321.057.14-.028.282-.189.318-.161.035-.02.042.313.015.404-.032.73.043.976.227.481.358.793.356.44-.003h.003zm-6.006.325a1.302 1.302 0 0 0-.545 0c-.15.039-.028.07.272.07.3 0 .423-.031.273-.07zm-3.613-.414c-.077-.049-.087-.144-.022-.21.14-.145.525-.02.525.168 0 .15-.296.174-.503.042zm-.23.298c-.14-.234-.105-.245.387-.125.189.046.29.14.224.207-.065.068.033.086.219.04.185-.045.289-.132.229-.193-.06-.062.082-.08.314-.042.705.118.294-.473-.443-.636-.803-.179-.824-.324-.033-.224.59.074.592.073.07-.072a2.327 2.327 0 0 0-1.122-.016c-.398.089-.67.082-.83-.02-.283-.18-.396-.127-.498.237-.053.191.082.293.47.354.473.074.493.098.15.182-.414.101-.313.379.136.375.156-.002.13-.056-.067-.137-.28-.115-.272-.135.054-.137.21-.001.382.092.382.207 0 .114.109.208.242.208s.185-.094.116-.208zm-3.339-.008c-.102-.17-.018-.198.389-.133.382.06.595.003.808-.217.178-.184.194-.26.04-.2-.149.059-.298-.02-.37-.194-.066-.16-.182-.29-.258-.29-.275.004-.641.21-.608.342.019.074-.212.214-.512.31-.42.136-.454.177-.15.179.216.001.339.059.27.129-.102.105.012.173.473.279.027.006-.011-.086-.082-.205zm-47.392.12c-.158-.04-.346-.034-.419.012-.072.046.057.08.287.073.254-.007.306-.04.132-.084zm58.664.1c.21-.085.25-.175.11-.256-.132-.075-.367-.022-.599.134-.411.277-.093.356.49.122zm-5.672-.146c0-.06-.196-.077-.437-.037-.24.04-.436.122-.436.182s.196.077.436.037.437-.122.437-.182zm-52.042.152c-.214-.222-.56-.041-.407.212.084.14.203.167.342.078.118-.075.147-.206.065-.29zm-3.828.272c0-.074-.148-.098-.328-.054-.18.044-.327.104-.327.135 0 .03.147.054.327.054.18 0 .328-.06.328-.135zm-1.31-.004c-.265-.109-.236-.135.157-.137.323-.001.445-.066.368-.195-.072-.118-.294-.164-.576-.117-.361.06-.43.028-.32-.154.184-.306.03-.292-.502.047-.24.153-.331.278-.203.278.129 0 .382.094.562.209.18.115.443.207.584.206.151-.001.122-.058-.07-.137zm62.418.225c0-.03-.29-.081-.643-.114-.354-.033-.594-.009-.533.054.108.111 1.176.166 1.176.06zm-59.58-.094c0-.08-.099-.108-.219-.061s-.218.113-.218.147c0 .034.098.062.218.062s.218-.067.218-.148zm-10.631-.13c-.063-.154-.192-.279-.287-.279-.095 0-.12.125-.058.278.063.153.192.279.286.279.095 0 .121-.126.059-.279zm6.265.905c0-.037-.167-.192-.371-.345-.25-.185-.422-.225-.523-.121-.083.085-.456.162-.828.17-.67.016-.816.09-.533.271.166.106 2.255.129 2.255.025zm309.947.39c-.157-.04-.346-.035-.418.011-.072.047.057.08.286.073.255-.006.306-.04.132-.084zm-3.26 2.368a1.302 1.302 0 0 0-.546 0c-.15.038-.027.07.273.07.3 0 .423-.032.273-.07zm13.736 3.335c-.158-.04-.346-.035-.418.011-.073.046.056.08.286.073.254-.006.306-.04.132-.084zm3.492 5.564c-.158-.04-.346-.036-.419.01-.072.047.057.08.287.074.254-.007.306-.04.132-.084zm-.873 0c-.158-.04-.346-.036-.419.01-.072.047.057.08.287.074.254-.007.306-.04.132-.084zm-3.71 0c-.158-.04-.346-.036-.419.01-.072.047.057.08.287.074.254-.007.306-.04.132-.084zm4.583.278c-.158-.04-.346-.035-.419.01-.072.047.057.08.287.074.254-.007.306-.04.132-.084zm-426.27 4.963c0-.076-.1-.139-.22-.139s-.217.063-.217.14c0 .076.098.138.218.138s.218-.062.218-.139zm424.483 7.648c.18-.014-.056-.083-.524-.153-.876-.131-1.138-.096-.926.123.11.113.328.117 1.45.03zm1.45.21c.29-.185.277-.208-.125-.208-.257 0-.452.09-.452.209 0 .115.055.209.125.209.068 0 .272-.094.452-.21zm-7.084.393c-.157-.04-.345-.036-.418.01-.072.047.057.08.287.074.254-.007.306-.04.131-.084zm-428.632.187c-.327-.093-.562-.093-.708 0-.146.093.017.14.49.14.652 0 .67-.011.218-.14zm-3.845-.027c-.233-.112-.522-.204-.642-.204s-.028.092.205.204c.233.112.522.204.642.204s.028-.092-.205-.204zm-3.778.112c-.39-.03-1.028-.03-1.418 0-.39.031-.071.056.709.056.78 0 1.1-.025.71-.056zm1.91.016c0-.03-.202-.054-.45-.054-.247 0-.39.06-.32.133.117.12.77.053.77-.078zm17.619.962a1.945 1.945 0 0 0-.655.005c-.148.038.026.067.386.064.36-.002.481-.034.269-.069zm407.342 1.531c-.158-.04-.346-.035-.418.011-.073.047.056.08.286.074.254-.007.306-.04.132-.085zm-405.101.663c.459-.017.488-.041.185-.154-.4-.149-2.416-.02-2.256.145.056.058.422.087.813.066.392-.02.958-.046 1.258-.057zm413.135.769c0-.132-.653-.199-.77-.079-.07.074.074.133.32.133.248 0 .45-.024.45-.054zm-1.091.193c0-.076-.147-.139-.327-.139-.18 0-.328.063-.328.14 0 .076.147.139.328.139.18 0 .327-.063.327-.14zm-414.226.549c0-.081-.099-.109-.219-.062-.12.048-.218.114-.218.148 0 .033.098.06.218.06s.219-.065.219-.146zm-1.614-.233c-.073-.046-.125.036-.115.183.01.162.062.195.132.084.063-.1.055-.22-.018-.267zm413.275.566a1.301 1.301 0 0 0-.545 0c-.15.039-.027.07.273.07.3 0 .423-.031.272-.07zm-420.61.231c0-.076-.171-.138-.381-.137-.327.003-.335.022-.055.137.412.17.437.17.437 0zm-4.091.047a1.302 1.302 0 0 0-.546 0c-.15.039-.027.07.273.07.3 0 .423-.031.273-.07zm13.08.276c-.157-.04-.345-.036-.418.01-.072.047.057.08.287.074.254-.007.306-.04.132-.084zm-3.041.002a1.302 1.302 0 0 0-.546 0c-.15.039-.027.07.273.07.3 0 .423-.031.273-.07zm-2.346-.047c-.075-.077-.287-.14-.473-.14-.198 0-.29-.079-.222-.192.081-.134-.009-.172-.296-.124-.336.056-.36.102-.132.247.154.099.47.21.702.247.231.038.451.076.488.085.037.009.007-.047-.067-.123zm438.396.186a1.302 1.302 0 0 0-.545 0c-.15.039-.027.07.273.07.3 0 .422-.031.272-.07zm-450.727.092c-.78-.16-1.091-.16-1.091 0 0 .077.368.133.818.125.73-.012.76-.026.273-.125zm6.978.066c-.2-.154-1.74-.107-1.74.054 0 .049.436.09.968.092.668.003.907-.043.772-.146zm11.313.082c.055-.104-.027-.157-.19-.122-.158.034-.33.143-.382.244-.055.104.027.156.19.121.158-.033.33-.143.382-.243zm-.928.117c.057-.059-.015-.153-.16-.21-.145-.057-.302-.03-.35.06-.046.09-.285.163-.53.163-.37 0-.4-.035-.173-.208.233-.18.166-.207-.464-.198-.405.007-.614.043-.464.081.43.11.32.3-.218.37-.27.036.127.061.883.057.755-.004 1.42-.057 1.476-.115zm-13.076-.056c-.364-.232-.9-.254-1.56-.063-.315.09-.217.104.358.047.47-.047.853-.017.94.073.081.083.247.151.368.151.122 0 .074-.094-.106-.208zm9.63.155c-.209-.1-.315-.224-.237-.273.078-.05.027-.09-.113-.09-.274 0-.347.31-.109.463.08.05.301.09.491.088.3-.003.295-.029-.033-.188zm-1.79-.317c-.412-.09-1.222-.134-1.8-.095-1.215.08-2.158.145-2.47.17-.12.01-.219.067-.219.128s.383.108.852.105c.468-.004.796-.064.73-.133-.07-.072.22-.091.672-.044.437.045.851.023.922-.05.07-.073.221-.096.335-.051.114.045.15.14.081.21-.069.072-.027.13.093.13s.279-.062.353-.139c.22-.226.544-.158.398.084-.117.194-.075.199.333.036.456-.181.45-.19-.28-.35zm-1.87.37c-.427-.176-.716-.176-.545 0 .074.077.3.138.504.137.318-.002.323-.02.041-.137zm-6.724.044c-.158-.04-.346-.035-.419.011-.072.047.057.08.287.073.254-.006.306-.04.132-.084zm-7.639 0c-.157-.04-.346-.035-.418.011-.073.047.056.08.286.073.255-.006.306-.04.132-.084zm3.056.14c-.158-.04-.346-.036-.419.01-.072.047.057.08.287.074.254-.007.306-.04.132-.084zm.395 2.103c0-.034-.098-.061-.218-.061s-.218.066-.218.147c0 .081.098.109.218.061.12-.047.218-.113.218-.147zm445.217 1.052c0-.077-.098-.14-.218-.14s-.219.063-.219.14c0 .076.099.139.219.139s.218-.063.218-.14zM34.742 50.117c-.158-.04-.346-.035-.419.01-.072.047.057.08.287.074.254-.007.306-.04.132-.084zm425.097.234c0-.077-.172-.138-.382-.137-.326.002-.334.022-.054.137.412.17.437.17.437 0zm-.655.25c0-.142-.898-.14-1.251.003-.16.064.04.109.49.109.42 0 .761-.05.761-.112zm-438.41.211c-.157-.04-.346-.035-.418.011-.073.046.056.08.286.073.254-.006.306-.04.132-.084zm436.883.18c0-.03-.148-.091-.328-.135-.18-.044-.327-.02-.327.055 0 .074.147.134.327.134.18 0 .328-.024.328-.054zM16.04 50.907c.075-.077-.088-.138-.37-.137-.405.002-.44.029-.176.137.406.167.384.167.546 0zm442.409.235c.208.051.26.004.168-.15-.188-.312-.465-.28-.762.09-.2.248-.197.279.02.15.149-.09.407-.13.574-.09zM14.528 53.277c-.383-.087-1.433-.035-1.433.072 0 .024.417.04.927.035.618-.007.787-.043.506-.107zm-2.961.412c.18-.074.23-.135.11-.135-.12 0-.366.06-.546.135-.18.074-.23.135-.11.135.12 0 .366-.06.546-.135zm14.404 2.643c0-.077-.098-.14-.218-.14s-.219.063-.219.14c0 .076.099.139.219.139s.218-.063.218-.14zm-5.456 3.956c0-.034-.153-.062-.34-.062-.187 0-.279.064-.204.142.125.128.544.067.544-.08zm8.476.982c-.06-.038-.371-.083-.691-.1-.32-.017-.583-.08-.583-.14 0-.06-.082-.108-.182-.108-.1 0-.182.094-.182.209 0 .15.243.208.873.208.48 0 .824-.031.765-.069zm-3.13.208c-.073-.076-.27-.139-.436-.139-.165 0-.362.063-.436.14-.077.078.111.138.436.138.326 0 .514-.06.437-.139zm-5.673.696c.08-.083-.157-.134-.588-.125-.679.013-.69.02-.176.125.3.061.564.117.587.125.023.007.102-.049.177-.125zm-2.838.695c-.074-.076-.178-.139-.23-.139-.054 0-.097.063-.097.14 0 .076.104.138.231.138s.17-.062.096-.139zm1.31.14c-.074-.077-.178-.14-.231-.14-.053 0-.097.063-.097.14 0 .076.104.138.232.138.127 0 .17-.062.096-.139zm-11.813 3.17c-.15-.155-.736-.139-.736.02 0 .072.19.121.421.11.232-.011.373-.07.315-.13zm.178.35c-.158-.04-.346-.034-.419.012-.072.046.057.079.287.073.254-.007.306-.04.132-.084zm-1.569.366c0-.081-.098-.109-.218-.062-.12.048-.218.114-.218.148 0 .033.098.061.218.061s.218-.066.218-.147zm5.06.747c-.157-.04-.345-.035-.418.011-.072.047.057.08.287.073.254-.006.306-.04.132-.084zm-.913-.044c0-.076-.202-.139-.45-.139-.247 0-.388.063-.314.14.074.076.276.138.45.138.172 0 .314-.062.314-.139zm-2.292.696c-.074-.077-.276-.14-.45-.14-.172 0-.314.063-.314.14 0 .076.203.139.45.139s.388-.063.314-.14zm1.31.695c-.075-.076-.271-.139-.437-.139-.166 0-.362.063-.436.14-.077.079.11.138.436.138.325 0 .513-.06.437-.139zm293.977 9.872c.09-.092-.293-.134-1.082-.118-.986.021-1.319-.032-1.722-.274-.483-.289-.934-.41-.725-.195.056.057-.324.092-.845.078-.551-.015-1.044.05-1.18.153-.178.137-.5.148-1.378.044a39.008 39.008 0 0 0-2.632-.23c-.097-.006-.116-.073-.042-.15.075-.077-.109-.198-.408-.27-.712-.173-1.454-.584-1.314-.728.061-.063-.048-.114-.242-.114s-.293.062-.218.139c.074.076-.013.139-.193.139s-.502.188-.715.417c-.404.435-1.166.571-1.166.208 0-.215-.056-.207-1.255.189-.274.09-.49.104-.49.03 0-.144-1.569-.027-1.747.13-.146.13-.873.12-.873-.012 0-.058.123-.136.273-.175.163-.042.12-.074-.11-.08-.21-.006-.381.047-.381.118 0 .283-1.203.216-1.701-.095-.306-.19-.774-.314-1.2-.316-.385-.002-1.116-.123-1.624-.27-.806-.233-.965-.242-1.24-.067-.173.11-.426.201-.561.201-.136 0-.186.063-.112.14.078.08-.125.137-.478.136-.476-.002-.54-.032-.286-.137.338-.14.171-.19-.491-.146-.21.013-.382-.067-.382-.178 0-.208-.445-.371-1.013-.371-.177 0-.277.047-.22.104.055.057-.73.082-1.743.055-1.595-.043-1.894-.014-2.216.215-.39.276-1.355.4-1.355.173 0-.22-.422-.144-.815.148-.205.153-.524.277-.707.276-.29-.002-.292-.019-.012-.131.275-.111.268-.143-.054-.222-.207-.05-.376-.173-.376-.272 0-.099-.368-.302-.818-.45-.786-.26-.84-.261-1.364-.025-.3.136-1.086.286-1.746.335-.864.063-1.109.047-.873-.057.28-.124.27-.145-.07-.147-.447-.003-1.28.25-1.485.45-.075.074-.353.09-.617.037-.264-.054-.43-.13-.368-.17.3-.19-.677-.574-1.39-.546-.42.017-1.046-.057-1.392-.163-.513-.157-.726-.16-1.143-.019a1.559 1.559 0 0 1-.991.039c-.375-.107-.572-.078-.898.13a1.462 1.462 0 0 1-.943.203c-.288-.035-.524-.01-.524.056 0 .19-.318.14-.786-.124-.51-.287-.96-.369-.96-.173 0 .076-.144.139-.32.139-.177 0-.274.078-.217.174.065.107-.1.18-.429.193-.294.01-.581-.06-.639-.155-.066-.11-.43-.16-.98-.135-.595.027-.911-.023-.992-.156-.09-.151-.25-.165-.69-.058-.314.076-.686.092-.826.034-.14-.057-.745-.106-1.345-.108-.6-.003-1.315-.055-1.588-.116-.346-.078-.478-.06-.437.055.14.39-.511.266-.733-.14-.172-.315-.413-.458-.865-.516-.344-.044-.573-.135-.508-.202.066-.067-.034-.122-.221-.122-.188 0-.34-.05-.34-.109 0-.06-.476-.122-1.058-.138-.933-.026-1.085.01-1.302.314-.272.38-1.208.598-1.626.378-.392-.206-1.469-.047-1.323.195.082.137-.056.194-.465.194-.32 0-.524-.058-.454-.13.282-.292-2.335-.79-3.13-.595-.258.063-.238.1.098.184.392.097.388.105-.053.114-.686.015-1.183-.135-1.017-.306.091-.095.005-.115-.237-.055-.211.051-.586.002-.84-.112-.323-.144-.539-.162-.73-.06-.15.079-.6.148-.998.153-.398.005-.822.057-.942.114-.53.254-1.67.3-2.045.084-.403-.233-1.745-.268-2.594-.069-.509.12-1.581-.098-1.581-.32 0-.066-.24-.081-.533-.034-.373.06-.68-.003-1.023-.206-.27-.16-.576-.292-.68-.292-.105 0-.12-.072-.035-.16.18-.185-.249-.05-.809.255-.229.125-1.067.208-2.4.237-1.128.025-2.532.12-3.122.21-.852.131-1.108.13-1.243-.01-.094-.097-.238-.133-.32-.08-.207.131-.966-.145-.966-.352 0-.093-.245-.17-.545-.17-.3 0-.546.041-.546.09 0 .193-1.16.273-1.343.093-.15-.149-.22-.147-.378.01a.446.446 0 0 1-.437.096.803.803 0 0 0-.515.016c-.536.218-1.776.444-1.986.361-.118-.046-.514-.099-.88-.117-.367-.019-.694-.087-.728-.152-.09-.17-4.117-.13-4.463.045-.448.226-1.449.341-1.6.185-.075-.076-.326-.14-.56-.14-.232 0-.423-.062-.423-.138 0-.077-.393-.14-.873-.14s-.873.063-.873.14c0 .076-.112.139-.248.139-.137 0-.358.09-.491.2-.388.322-1.33.408-1.723.158-.19-.12-.449-.22-.578-.22-.128 0-.234-.046-.234-.103 0-.058-.286-.117-.635-.133a1.981 1.981 0 0 0-1.2.332c-.31.198-.565.295-.565.214 0-.132-1.669-.726-2.04-.726-.087 0-.448.19-.805.422-.356.232-.647.353-.647.268 0-.087-.179-.117-.418-.068-.23.046-.473.028-.54-.04-.161-.167-2.574-.183-2.978-.02-.176.07-.24.13-.143.13.097.003.118.063.047.137-.082.084-.35.076-.722-.022-.326-.085-1.477-.177-2.557-.203-1.08-.027-2.259-.06-2.619-.075-.36-.015-1.055.015-1.545.067-.712.076-.98.041-1.34-.172-.483-.287-1.37-.246-1.37.062 0 .226-1.082.361-1.566.196-.204-.07-.628-.126-.943-.126-.326 0-.515-.06-.438-.14.074-.076.02-.138-.12-.138-.14 0-.197-.094-.128-.209.069-.115.04-.208-.063-.208-.103 0-.244.093-.313.208-.07.115-.272.209-.45.209-.177 0-.401.088-.497.195-.276.31-.718.3-2.442-.045-1.246-.25-1.926-.308-2.991-.254-.788.04-1.409.014-1.449-.062-.038-.073-.342.028-.675.225-.632.373-1.02.457-1.02.22 0-.077-.148-.14-.328-.14-.18 0-.327-.055-.327-.123 0-.148-1.118-.108-1.532.055-.161.064-.708.124-1.214.133-.507.01-1.069.095-1.25.19-.428.227-1.406.07-1.693-.272-.158-.19-.366-.24-.734-.182-.282.045-.579.015-.659-.068-.202-.208-1.37-.19-1.492.024-.077.135-.195.137-.539.009a2.072 2.072 0 0 0-.901-.089c-.303.051-.463.012-.465-.113-.004-.12-.062-.137-.164-.044-.458.417-4.673.719-4.273.306.09-.092-.068-.119-.431-.075-.336.041-.518.015-.442-.064.079-.08-.075-.096-.388-.038-.285.052-.69.126-.9.163-.21.037-.382.012-.382-.057 0-.068-.296-.096-.658-.062a4.51 4.51 0 0 1-1.31-.111c-.436-.115-.742-.127-.924-.035-.15.076-1.255.182-2.455.236-1.2.053-2.554.118-3.008.143-.523.029-.945-.03-1.152-.162-.29-.185-.387-.183-.866.017-.474.198-.54.2-.54.014 0-.117-.147-.212-.327-.212-.18 0-.327-.07-.327-.155 0-.097-.193-.075-.515.06-.456.19-.585.191-1.132.01-.876-.29-2.736.008-2.376.379.134.138-.021.158-1.433.188-.656.014-1.065-.049-1.232-.19-.185-.157-.325-.173-.545-.06-.176.089-.475.105-.733.039a5.463 5.463 0 0 0-1.037-.122c-.33-.006-.6-.065-.6-.132 0-.129-1.182-.482-1.606-.48a5.178 5.178 0 0 0-.738.102c-.372.077-.618.011-1.034-.275-.443-.304-.605-.343-.864-.206-.41.217-3.344.295-3.992.107-.346-.1-.743-.098-1.314.01-1.272.24-2.728.338-2.568.172.076-.078.034-.142-.093-.142s-.23.066-.23.147c0 .084-.118.1-.274.037-.364-.148-.615-.153-1.192-.024-.266.059-.536.053-.6-.013-.064-.066-1.025-.099-2.136-.072-1.11.026-2.351.05-2.757.054-.43.003-.87.11-1.053.252-.173.134-.259.173-.19.085.233-.3-.802-.348-2.783-.13-.745.082-1.207.064-1.574-.062-.518-.176-2.82-.124-4.008.091-.368.067-.479.048-.37-.064.097-.1.039-.131-.157-.083-.17.041-.47-.027-.667-.152-.33-.21-.413-.205-1.11.07-.568.223-.855.262-1.16.158-.463-.158-1.794-.165-1.794-.01 0 .056-.344.128-.764.16-.42.03-.764.007-.764-.055 0-.061-.196-.111-.436-.111s-.437-.093-.437-.206c0-.175-.423-.196-2.783-.14-1.53.037-2.976.083-3.213.102-.249.02-.434-.048-.437-.16-.004-.107-.198-.237-.433-.29-.471-.105-2.082.242-2.082.449 0 .075-.371.09-.873.036-.574-.062-.873-.042-.873.057 0 .236-1.028.178-1.175-.066-.072-.12-.23-.178-.351-.13-.12.047-.22.016-.22-.07 0-.095-.256-.13-.654-.09-.36.036-.709.009-.777-.062-.068-.07-.373-.087-.679-.038-.306.049-.619.026-.696-.051-.077-.078-1.024-.185-2.104-.24a97.535 97.535 0 0 1-2.62-.16c-.36-.032-.85-.067-1.09-.075-.24-.008-.923-.101-1.516-.206-.723-.128-1.152-.145-1.299-.052-.29.184-1.878.18-1.878-.004 0-.097-.143-.095-.44.007-.243.082-.538.112-.655.066-.118-.047-.214-.008-.214.084 0 .102-.182.065-.461-.096-.372-.214-.822-.268-2.346-.28-1.037-.01-2.278-.057-2.758-.105a49.802 49.802 0 0 0-2.074-.15c-.66-.032-1.25-.07-1.31-.083-.306-.067-2.41-.12-7.856-.198-3.3-.047-6.738-.152-7.638-.232-.9-.08-2.227-.162-2.947-.182-.72-.019-1.457-.07-1.637-.114-.857-.208-1.937-.268-5.78-.32-4.885-.066-6.022-.204-6.42-.776-.212-.306-.437-.404-.967-.424-.705-.027-1.487-.06-2.157-.094-.239-.012-.33-.095-.25-.228.094-.156-.034-.208-.509-.208-.349 0-.766-.078-.928-.174-.235-.14-.263-.14-.14 0 .168.19.176.188-1.038.236-.618.024-.743-.002-.473-.097.201-.072.554-.1.784-.061.279.046.419-.002.419-.144 0-.17.17-.196.818-.13.562.057.716.042.491-.05-.18-.072-.72-.138-1.2-.144-.48-.007-1.07-.066-1.31-.132-.404-.11-.396-.122.11-.15.3-.018.814-.04 1.142-.05.328-.01.715-.093.86-.185.204-.13.108-.187-.438-.257-.808-.103-.953-.2-.696-.465.112-.116.603-.195 1.26-.202.96-.01 1.063-.042.963-.287-.062-.15-.146-.209-.188-.13-.042.08-.54.131-1.108.114-.721-.022-.9.003-.595.085.422.113.42.117-.036.127-.26.005-.654.046-.873.09-.379.077-.38.07-.018-.12.468-.245.487-.378.054-.378-.18 0-.327-.062-.327-.139 0-.076-.104-.14-.231-.14s-.178.057-.112.124c.16.165-.598.122-.786-.045-.088-.077-.277-.061-.468.04-.255.135-.385.129-.633-.029a2.32 2.32 0 0 0-.732-.267c-.315-.05-.275-.072.16-.084.321-.009.62-.087.665-.174.054-.103.206-.08.44.07.196.125.535.223.754.217.357-.009.354-.022-.04-.13-.403-.11-.396-.12.097-.128.52-.01.522-.016.11-.23-.352-.183-.36-.207-.05-.145.207.04.44.008.519-.073.097-.1.197-.093.31.024.118.121.211.084.315-.124.081-.163.24-.297.351-.297.112 0 .204-.057.204-.126 0-.07-.185-.095-.412-.057-.226.037-.463.015-.526-.05-.063-.064.363-.122.947-.128.583-.006 1.204-.087 1.38-.18.217-.114.951-.15 2.292-.113 1.512.042 1.999.01 2.085-.132.077-.128-.075-.189-.48-.192-.513-.003-.541-.023-.207-.147.47-.175.731-.208 2.63-.338 1.073-.073 1.424-.144 1.253-.253-.13-.083-.654-.133-1.162-.11-.767.033-.877.008-.642-.145.196-.127.82-.177 2.019-.16 1.61.022 2.088-.078 1.49-.314-.135-.053-.635-.096-1.11-.096-.477 0-.749-.047-.605-.103.195-.077.197-.128.01-.202a.711.711 0 0 0-.514.038c-.3.156-.886-.15-.632-.329.083-.059.026-.061-.126-.005s-.22.16-.15.231c.157.163.193.166-1.081-.08-1.307-.253-2.673-.27-2.822-.034-.088.14-.114.14-.127 0-.01-.095-.122-.174-.249-.174s-.185.047-.13.105c.055.057-.231.111-.637.12-.406.01-.685-.038-.62-.104.064-.066.02-.12-.097-.12s-.385-.043-.594-.094c-.26-.063-.33-.041-.223.07.103.106-.016.162-.34.162h-.498l.485-.216c.639-.286.614-.48-.061-.48-.3 0-.546-.047-.546-.106s.958-.13 2.128-.157c2.22-.053 3.144-.095 3.329-.15.06-.02.33-.023.6-.01.27.015.49-.049.49-.14 0-.106.1-.121.274-.043.317.144 2.916.138 4.243-.009.812-.09 1.798-.497 1.205-.497-.123 0-.177-.116-.119-.257.078-.19.257-.242.689-.198.458.047.513.028.256-.089-.18-.08-.5-.148-.71-.15-.21-.001-.381-.075-.381-.164 0-.09-.065-.121-.144-.07-.079.05-.294.013-.477-.082-.278-.144-.311-.134-.2.057.106.18-.063.26-.777.367-.501.076-1.06.144-1.24.15-.18.008-.963.078-1.741.158-.779.079-1.533.115-1.678.08-.144-.036-.293-.01-.33.055-.039.066-.361.084-.718.04-.566-.07-.594-.094-.218-.184.25-.061-.071-.087-.77-.064-.66.023-1.323-.022-1.472-.099-.15-.076-.47-.106-.71-.066-.24.04-.383.016-.316-.053.156-.161-.048-.161-.521 0-.245.083-.556.061-.913-.065-.299-.105-.428-.193-.287-.196.14-.003.426-.047.636-.098.29-.071.335-.047.19.104-.129.133.011.113.424-.06.348-.144.845-.228 1.14-.192.288.035.94.01 1.45-.055.508-.065 1.857-.157 2.997-.203 1.14-.046 2.267-.15 2.505-.232.238-.081.768-.164 1.178-.185.41-.02.825-.118.92-.217.095-.098.45-.191.786-.207.337-.016.638-.041.668-.057.095-.05.477-.098.93-.116.366-.014.397-.058.19-.269-.206-.211-.512-.248-1.88-.226-.985.016-1.517-.021-1.338-.093.164-.066.199-.126.079-.132-.12-.007-.022-.063.218-.124.25-.065.555-.052.714.029.194.099.394.073.671-.087.218-.125.535-.229.706-.23.256-.003.253-.026-.018-.137-.18-.074-.224-.136-.098-.137a.975.975 0 0 1 .437.123c.114.07.649.157 1.19.195.54.038 1.374.145 1.854.237.643.124 1.032.128 1.477.016.595-.149.598-.155.186-.417-.305-.195-.83-.284-1.944-.333-.839-.036-1.627-.106-1.752-.155-.124-.049-.481-.015-.794.076-.402.117-.635.122-.8.016-.296-.188 1.317-.383 2.009-.243.292.059.421.043.338-.043-.073-.076-.012-.135.137-.132.149.003.464-.003.7-.016.423-.021.423-.025-.015-.22-.245-.11-.69-.183-.986-.162-.298.02-1.175-.018-1.949-.085a43.742 43.742 0 0 0-3.222-.117c-1.274.004-1.769-.04-1.664-.148.104-.106-.011-.121-.369-.047-.428.088-1.919.093-4.174.016-.21-.008-.382-.098-.382-.202 0-.128-.157-.16-.49-.103-.381.067-.415.055-.15-.052.319-.13 1.423-.178 2.932-.129.36.012.942-.03 1.293-.092.381-.068.887-.054 1.254.034.363.087.666.096.739.021.067-.07-.096-.127-.363-.127s-.421-.04-.342-.091c.079-.05.021-.188-.128-.305-.216-.17-.215-.192.003-.109.15.058.273.038.273-.043 0-.135-.152-.164-1.092-.21a2.138 2.138 0 0 1-.557-.107c-.127-.05-.52-.086-.874-.08a6.63 6.63 0 0 1-1.189-.098c-.513-.104-.52-.117-.108-.22.358-.088.312-.11-.254-.118-.38-.005-.74-.088-.801-.183-.066-.104-.117-.076-.128.07-.009.133.13.243.31.243s.328.064.328.141c0 .08-.225.106-.504.062a16.646 16.646 0 0 0-.867-.115c-.43-.04-.775-.227-.418-.227.137 0 .188-.1.114-.222-.116-.192.072-.218 1.37-.194 2.07.04 2.277.024 2.215-.175-.033-.106.175-.173.529-.17.32.003.536-.044.478-.104-.058-.06-.267-.109-.464-.109-.259 0-.292-.042-.12-.152.173-.11.371-.107.718.011.613.21.866.06.326-.192-.275-.129-1.135-.199-2.602-.214-1.275-.012-2.283-.086-2.41-.175-.156-.109-.108-.128.162-.068.446.1.498-.049.109-.315-.223-.153-.204-.172.102-.104.206.046.44.018.518-.064.08-.082.204-.093.28-.024.075.069.824.085 1.664.037.84-.048 1.327-.097 1.08-.109-.245-.012-.558-.093-.694-.18-.145-.092-.412-.112-.644-.049-.52.143-2.251.168-2.251.034 0-.058-.262-.105-.582-.105-1.341 0-.236-.12 1.891-.206 1.26-.05 2.377-.145 2.482-.21.105-.065.342-.082.527-.036.22.054.282.026.178-.08-.206-.214.143-.21.48.003.203.13.262.122.265-.034.004-.172.035-.171.215.007.133.131.212.146.214.04.005-.167.6-.155 2.35.048.39.045.71.028.71-.038s.303-.127.673-.135c.443-.01.573.024.381.102-.209.084-.152.118.2.12.27.001.491-.054.491-.121 0-.068.29-.15.643-.184.354-.033.594-.009.533.054-.06.063-.326.121-.589.13-.408.014-.418.026-.069.083.225.037.691-.066 1.037-.229.47-.222.628-.246.628-.098 0 .222.531.399.76.253.197-.126 1.429-.161 4.71-.137.669.005 1.424-.061 1.678-.148s1.475-.166 2.713-.176l2.251-.02-1.637-.11c-.9-.06-2.348-.13-3.218-.155-.87-.024-1.582-.085-1.582-.136 0-.05-.991-.098-2.201-.105-1.416-.01-2.407-.084-2.78-.208l-.58-.194.711.036c.391.02.775.076.852.125.25.159 1.338.096 1.452-.084.088-.139.113-.139.127 0 .026.263.89.213.89-.05 0-.166.146-.208.551-.158.303.036.603.013.667-.053.064-.066.43-.118.813-.117 1.592.008 3.986-.08 4.19-.152.12-.043.438-.067.708-.054.27.014.491-.024.491-.084 0-.06.296-.15.657-.201.362-.05.816-.193 1.009-.316.241-.154.703-.219 1.47-.207 1.314.021 3.63-.247 3.63-.42 0-.065-.188-.08-.418-.034-.23.046-.477.023-.55-.051-.072-.075-.473-.1-.891-.057-.466.048-.76.021-.76-.069 0-.08-.172-.173-.382-.206-.21-.032.355-.044 1.255-.027.9.018 1.819.08 2.04.139.223.058.469.05.546-.018.078-.069.618-.142 1.2-.162.949-.033 2.044-.258 1.852-.38-.041-.026-2.679-.071-5.862-.1-3.184-.03-5.892-.095-6.02-.145-.29-.115-5.906-.013-6.612.12-.3.057-.472.045-.403-.027.131-.135-1.062-.156-1.272-.023-.068.044-.41.027-.76-.036-.349-.064-1.004-.09-1.456-.056-.632.046-.746.025-.494-.091.246-.115.057-.134-.764-.08-.892.06-1.001.045-.6-.079.458-.142.693-.408.327-.37-.09.008-.31 0-.49-.021-.18-.02.556-.11 1.636-.198 1.08-.09 2.05-.116 2.154-.06.105.055.336.065.514.022.177-.044.398-.002.49.095.127.13.28.135.617.02.565-.192 1.605-.222 2.936-.084.727.075 1.037.06 1.037-.05 0-.088.104-.159.23-.159.128 0 .162.073.076.161-.11.114-.001.133.369.067.678-.123 3.393-.21 8.751-.283 2.364-.031 4.426-.108 4.582-.17.156-.06 1.015-.129 1.91-.15.895-.023 1.715-.097 1.823-.166.268-.17-3.32-.69-5.02-.727-.82-.017-1.302-.083-1.222-.165.083-.086-.106-.101-.5-.042-.348.053-.78.09-.96.083-1.643-.066-3.432-.05-3.355.03.118.122-1.12.03-1.474-.109-.142-.056-.203-.045-.136.024.114.118-6.86.128-12.208.018-1.38-.029-2.174.005-2.094.087.077.08.011.087-.163.018-.26-.102-1.142-.162-3.42-.233-.384-.012-.653-.069-.598-.126.056-.057-.072-.137-.283-.177-.212-.04.02-.04.514-.001.706.056.928.021 1.038-.161.097-.16.294-.208.631-.154.27.043.637.019.817-.053.26-.105.227-.132-.166-.133-.27-.002-.491-.059-.491-.127s.233-.115.518-.104c.51.02.597.15.3.452-.134.137.486.164 1.746.074.46-.033.303-.298-.176-.298-.279 0-.392.06-.297.158.085.087.042.133-.097.104-.136-.03-.224-.102-.194-.162.03-.06-.08-.163-.245-.228-.312-.123 2.53-.075 3.397.057.262.04.54.008.616-.07.076-.08.058-.135-.041-.124-.493.055-.955-.028-.836-.15.076-.079-.012-.102-.206-.055-.186.046-.338.014-.338-.071 0-.085.122-.155.272-.156.15-.002.51-.042.798-.091.403-.069.484-.047.347.095-.13.133-.081.16.177.097.196-.048.414-.027.485.046.07.073.295.128.498.122.227-.007.264-.038.096-.08-.553-.143-.253-.314.31-.178.694.168 1.261.068 1.026-.182-.125-.133-.08-.131.185.006.237.122.396.133.492.034.094-.097.255-.076.47.061.18.115.266.272.192.35-.075.076-.043.14.071.14.249 0 .518-.399.371-.55-.057-.058.4-.08 1.017-.05.762.038 1.177-.002 1.3-.124.14-.14.18-.134.183.03.002.158.242.206.97.194l.966-.017-.345.336c-.342.332-.34.334.288.238.777-.119.945-.197.425-.197-.302 0-.335-.042-.147-.186.133-.103.203-.213.154-.244-.05-.031.395-.043.986-.026 1.242.036 2.03.253 1.799.498-.087.092.028.073.254-.042.24-.121.343-.136.247-.034-.186.197-.005.207.626.034.373-.102.381-.12.054-.129-.21-.006-.382-.077-.382-.158 0-.085.187-.111.437-.06.55.11 1.36-.045 1.183-.227-.073-.076-.443-.099-.822-.051-.515.064-.606.05-.361-.06.18-.08.493-.146.696-.147.582-.003.644-.218.173-.6l-.434-.351.836-.09c.459-.05.926-.08 1.037-.066.45.055.747-.018.747-.184 0-.223-5.366-.323-5.774-.107-.418.22-2.479.09-2.91-.184-.328-.21-.333-.256-.045-.383.243-.108.132-.126-.437-.071-1.027.099-6.234-.17-8.052-.415-.878-.118-.227-.312 1.396-.416.84-.054 1.601-.167 1.691-.25.113-.106.23-.09.379.055.199.193.32.095.237-.193-.02-.07.372-.075.902-.014.516.06 1.134.108 1.374.106 1.738-.014 8.062-.193 8.12-.229.112-.072-4.486-.262-6.096-.251-.807.005-1.525-.05-1.595-.122-.07-.073-.008-.132.14-.132.147 0 .204-.04.127-.09-.077-.048-.265-.026-.418.051-.436.22-2.797.324-3.316.146-.288-.098-2.527-.176-6.128-.212-3.121-.03-6.018-.11-6.439-.177l-.763-.121.763.007c2.221.02 2.608-.016 2.475-.237-.072-.12-.27-.183-.44-.141-.172.042-.259.021-.194-.045.065-.067 1.911-.124 4.103-.128 2.193-.003 4.036-.014 4.096-.022.06-.009 1.435-.036 3.055-.06s3.34-.111 3.82-.194c.48-.082 3.67-.22 7.09-.308 3.474-.089 6.334-.22 6.483-.3.146-.076.36-.102.477-.056.116.046 1.106-.015 2.198-.136 1.093-.12 2.156-.184 2.363-.142.206.041.665-.046 1.02-.194.595-.25.612-.278.218-.375-.393-.096-.384-.111.12-.2.399-.072.241-.101-.588-.112-.623-.007-1.203-.086-1.288-.174-.097-.1-.06-.123.096-.061.139.054.252.033.252-.048 0-.082.172-.15.382-.153.294-.003.26-.047-.148-.192-.515-.182-.498-.19.611-.342.627-.086 1.308-.157 1.512-.158.32-.003.325-.021.044-.137-.253-.104-.26-.136-.032-.137.173-.002.244-.09.17-.211-.068-.115-.024-.209.1-.209.123 0 .163-.062.089-.139-.074-.076-.43-.139-.79-.139-.38 0-.598-.058-.52-.139.075-.076.473-.14.886-.14.851 0 .997-.227.26-.405-.461-.112-.444-.127.273-.261l.764-.143-.691-.012c-.38-.008-.724-.074-.764-.15-.04-.075-.983-.16-2.096-.188-1.112-.028-2.076-.085-2.142-.127-.066-.042.943-.052 2.241-.024 1.385.031 2.236.003 2.06-.068-.212-.084-.05-.144.545-.2 1.222-.114 3.878-.257 4.772-.257.422 0 .767-.06.767-.133 0-.074.105-.092.234-.042.334.132 2.167-.065 2.167-.232 0-.077-.19-.102-.421-.055-.232.047-1.754.095-3.383.107-1.736.012-2.962.077-2.962.156 0 .074-.072.088-.16.031-.09-.056-.163-.207-.164-.335-.003-.185-.176-.223-.846-.187-.507.028-.79-.008-.712-.089.132-.136-.376-.284-1.391-.406-.3-.036-2.068-.083-3.929-.104-4.863-.055-6.567-.148-6.788-.371-.147-.148-.19-.15-.192-.01-.003.132-.223.155-.822.087-1.389-.16-1.488-.29-.296-.391 1.833-.155 1.998-.254.78-.467a25.25 25.25 0 0 0-1.412-.217 1.189 1.189 0 0 1-.545-.2c-.12-.094-.577-.188-1.016-.208-.438-.02-.751-.083-.695-.14.055-.058.365-.07.688-.027.416.056.491.041.259-.051-.18-.072-.706-.173-1.17-.227a12.822 12.822 0 0 1-1.418-.245c-.317-.083-.97-.174-1.45-.204s-1.167-.144-1.527-.252a10.13 10.13 0 0 0-1.298-.283c-.414-.056-.548-.124-.376-.192.185-.073.097-.155-.284-.266-.715-.207-.7-.387.048-.56.563-.132.569-.14.094-.151-.44-.01-.466-.037-.193-.211.278-.177 1.259-.322 2.71-.4.755-.04.072-.391-.818-.42-.769-.025-1.105-.283-.547-.42.185-.044.336-.034.336.023s.438.117.974.131c.762.022.947-.015.854-.17-.065-.109-.282-.23-.482-.27-.2-.04.004-.04.455-.001.494.043.818.013.818-.075 0-.08-.466-.152-1.036-.16-1.037-.014-1.037-.014-.328-.159 1.42-.29.88-.38-3.606-.592-1.59-.075-2.45-.195-2.45-.34 0-.057 2.823-.114 6.274-.127 6.28-.024 8.13-.092 8.13-.3 0-.17-2.674-.379-3.11-.244a1.442 1.442 0 0 1-.804-.026c-.232-.08-1.042-.145-1.8-.146-.971-.002-1.282-.042-1.052-.137.242-.1.098-.135-.545-.135-.672 0-.798.034-.546.146.248.11.195.121-.218.044-.3-.056-.865-.09-1.255-.074-.39.015-.71-.033-.71-.107 0-.16.793-.34 1.05-.239.098.04.664.02 1.256-.044l1.078-.115-.873-.027c-.48-.015-.751-.059-.603-.097.392-.101-.192-.448-.704-.418-.216.012-.427-.04-.47-.116-.043-.077.143-.153.413-.17.27-.016.687-.058.927-.093.24-.035 1.173-.076 2.073-.092 1.499-.025 1.379-.043-1.418-.213-2.676-.163-5.746-.317-6.615-.332-.157-.002-.235-.057-.174-.12.062-.064.583-.102 1.16-.086.575.017 1.14-.006 1.256-.05.116-.044.531-.1.924-.127 1.84-.12 1.676-.274-.491-.46-2.306-.198-2.26-.355.12-.417l1.2-.031-.945-.098c-.52-.054-1.013-.166-1.094-.25-.08-.083-.44-.189-.8-.234-.513-.066-.56-.055-.215.048.356.108.37.134.07.142a1.436 1.436 0 0 1-.689-.196c-.177-.113-.896-.244-1.598-.292-.701-.047-1.325-.127-1.385-.177-.06-.05-.354-.112-.654-.138-.3-.025-.63-.098-.733-.16-.385-.235.793-.427 3.073-.5 1.293-.041 2.675-.14 3.07-.218.395-.079.857-.11 1.025-.068.169.041.828.017 1.464-.054 2.5-.277 11.435-.539 16.762-.49 3.85.034 4.147.014 4.147-.286 0-.106.098-.193.218-.193s.218.096.218.214c0 .186.337.202 2.565.12 1.41-.051 2.662-.137 2.782-.19.12-.053 1.25-.109 2.51-.123 1.26-.015 3.512-.095 5.003-.178 1.491-.082 3.076-.112 3.521-.067.53.054.89.021 1.04-.095.218-.167 1.724-.197 2.338-.047.146.036.534-.024.863-.132.329-.11.778-.198 1-.198.22 0 .65-.073.956-.161.4-.116.699-.12 1.062-.015.65.189 2.758-.04 3.097-.336.297-.259 2.29-.434 2.29-.202 0 .276.69.17.811-.124.083-.201.234-.259.525-.2.225.046.41.026.41-.043 0-.069.54-.243 1.2-.386.66-.143 1.2-.31 1.2-.37s.14-.11.312-.11.453-.09.626-.2c.206-.132.938-.219 2.13-.254 1.097-.033 1.85-.118 1.9-.213.046-.088.42-.2.833-.249.759-.09 1.4.055 2.82.642.36.149.802.314.982.366.18.053.656.253 1.058.446.668.32.934.352 3.099.37 1.609.015 2.354-.027 2.324-.13-.077-.273 1.17-.264 1.497.011.284.24.302.235.308-.074.006-.248.096-.306.372-.239.2.05.439.013.53-.081.232-.24 4.102-.227 4.336.015.132.136.276.139.648.012a3.42 3.42 0 0 1 1.064-.133 4.87 4.87 0 0 0 1.217-.134c.347-.09.678-.133.735-.096.058.036.253-.028.434-.143.221-.141.535-.18.965-.12.375.053.765.021.95-.077.218-.115.774-.136 1.823-.069 1.235.08 1.614.054 2.079-.14.313-.131.765-.205 1.005-.165.539.09 1.99-.18 1.833-.34-.062-.065-.015-.118.105-.118s.272.056.338.124c.206.213 2.779.436 2.978.258.07-.062.394.022.72.186.328.164.656.26.73.213.073-.047.013-.086-.134-.086-.147 0-.206-.063-.13-.14a.326.326 0 0 1 .327-.068c.104.042.269-.01.366-.115.098-.104.476-.227.841-.272.842-.103 2.53.036 2.375.196-.118.12.33.175 1.054.129.21-.014.382.041.382.123 0 .256.847.16 1.085-.123.178-.213.145-.302-.156-.415-.298-.112-.225-.125.325-.06.555.066.71.037.71-.133 0-.317.356-.408.841-.215.348.139.491.125.81-.079.28-.177.593-.226 1.115-.172.613.063.726.033.726-.194 0-.34.12-.338.697.003.503.299.936.241.732-.097-.07-.117-.01-.42.134-.673.218-.385.401-.476 1.116-.553.523-.056.948-.033 1.095.061.133.085.408.154.61.154.204 0 .427.094.496.209.069.114.237.208.374.208s.192-.094.123-.208c-.078-.13 0-.209.208-.209.197 0 .27-.066.177-.161-.107-.11-.008-.136.315-.083.335.056.594-.021.903-.271.334-.271.557-.33.982-.263.478.076.55.042.55-.263 0-.278.108-.35.532-.35.293 0 .593.063.668.14.204.21.763.166.763-.062 0-.123.27-.216.71-.243.477-.03.777-.142.916-.345.115-.165.475-.335.8-.376.467-.06.569-.136.478-.358-.063-.155-.054-.439.022-.631.11-.278.275-.35.802-.35.386 0 .607.058.528.139-.079.08.143.139.533.139.522 0 .668-.06.668-.278 0-.218.145-.279.669-.279.368 0 .862.066 1.099.147.693.237 2.088.216 2.529-.037.217-.125.664-.27.993-.322.33-.053.544-.152.478-.22-.188-.194.558-.32.837-.142.136.086.51.157.832.157.321 0 .706.094.856.209.15.115.382.203.518.197.153-.007.142-.037-.028-.081-.378-.097-.117-.325.37-.325.22 0 .558-.155.753-.344.289-.28.484-.331 1.062-.275.588.056.634.044.271-.076s-.327-.13.216-.061c.36.045.726.156.815.246.121.12.164.118.166-.011.004-.096.194-.174.427-.174.233 0 .484-.063.559-.14.074-.076.246-.138.382-.138.135 0 .062.086-.165.191-.386.18-.389.206-.041.427.298.19.37.197.37.034 0-.11.15-.28.333-.378.277-.146.387-.131.637.087.311.271.606.204.69-.157.025-.112-.109-.204-.298-.204-.19 0-.275-.045-.19-.099.248-.158 1.695.404 1.57.61-.066.111.048.184.29.184.307 0 .375-.08.295-.345-.157-.524.096-.96.649-1.119.68-.195 1.16-.11 1.436.254.132.174.238.22.247.108.012-.148.139-.126.506.086.626.364 1.61.481 1.935.232.297-.229 1.065-.252 1.065-.034 0 .105.09.112.273.02.457-.227 1.273-.304 1.824-.17.33.08.522.076.522-.01 0-.074.153-.135.34-.135.188 0 .289.054.225.12-.161.166 1.04.009 1.212-.159.086-.084.461-.092.982-.02.463.064 1.014.105 1.224.09.21-.015.382.034.382.11 0 .075.368.142.819.147.656.008.732.034.382.13-.383.104-.39.123-.055.15.828.066.928.051.928-.14 0-.11.27-.245.6-.302.33-.056.6-.064.6-.018 0 .047.125-.025.278-.158.334-.29 1.83-.247 2.143.063.161.16.232.162.382.014.14-.138.272-.097.546.169.199.193.361.447.361.564 0 .15.22.214.734.214.664 0 .723-.033.629-.348-.086-.286-.02-.348.38-.348.343 0 .449-.061.36-.208-.094-.157.038-.209.536-.209.385 0 .604.058.526.14-.075.076-.026.138.109.138.134 0 .183.063.109.14-.116.119.507.21 1.045.153.095-.01.371.05.614.132.371.127.43.11.373-.102-.047-.175.068-.253.369-.253.27 0 .41.078.365.205-.055.161.017.154.345-.035.228-.132.555-.24.725-.24.171 0 .59-.095.933-.208.343-.114.71-.173.818-.13.107.041.309-.084.449-.28.272-.38.98-.513.756-.141-.199.33.729.491 1.347.233.393-.164.489-.17.438-.024-.036.102.128.213.365.245.541.075.976.441.824.695-.085.14.053.182.515.156.347-.02 1.011.068 1.476.196.465.128.98.232 1.146.232.178 0 .3.147.3.36 0 .57.526.316.558-.271.032-.587.195-.73.97-.849.404-.062.703.01 1.149.276.5.298.624.323.732.143.072-.118.267-.215.434-.215.167 0 .304-.056.304-.124 0-.069.252-.165.56-.214.423-.068.66-.012.977.229.257.194.484.263.587.178.204-.17 1.15-.207 1.15-.046 0 .064.183.116.407.116.224 0 .686.14 1.026.31.34.17.545.233.453.14-.093-.098-.06-.172.078-.172.134 0 .19-.056.125-.123-.164-.17.456-.479.737-.368.124.049.399.025.61-.054.21-.078.305-.144.21-.146-.266-.007 1.727-1.256 2.002-1.256.133 0 .525.189.872.42.56.374.648.394.782.174.14-.23.177-.226.524.045.205.16.517.333.693.384.178.051.102.067-.171.034-.673-.08-.621.17.07.337.444.108.529.198.41.435-.115.231-.074.28.181.218.182-.044.716-.154 1.188-.244.8-.153 1.688-.69 1.14-.69-.127 0-.172-.063-.097-.14.197-.203.545-.17.545.053 0 .105.136.263.301.35.166.088.357.338.425.555.096.306.279.415.805.482.442.057.625.144.523.25-.099.101-.062.124.098.06.141-.055.21-.147.155-.204-.056-.057.09-.192.324-.3.513-.235.548-.411.082-.411-.305 0-.307-.023-.016-.209.18-.115.432-.209.561-.209.129 0 .21-.072.18-.162-.075-.22 1.392-.413 1.74-.228.15.079.219.2.153.268-.067.069.032.162.22.208.186.045.285.139.218.207-.066.069.026.125.205.125.18 0 .388.125.464.278.076.153.304.277.506.276.318-.003.323-.02.04-.142-.285-.121-.278-.158.059-.284.212-.08.32-.214.239-.297-.09-.093-.046-.112.114-.05.144.057.403.029.577-.063.184-.098.553-.128.89-.074.47.075.552.05.442-.131-.093-.155-.052-.19.136-.112.15.06.565.111.926.111.45 0 .633.062.587.198-.056.167-.011.169.29.01.3-.16.387-.158.554.01.138.14.2.147.202.026.004-.095.175-.173.385-.171.302.001.32.027.082.123-.166.067-.237.187-.16.268.145.149 1.007.028 2.022-.282.53-.163.948-.055.948.244 0 .11.132.2.292.2.344 0 .864.656.675.851-.08.082.102.097.466.04.402-.065.55-.047.451.054-.08.082-.046.188.076.236.121.048.325-.06.453-.238.195-.272.416-.331 1.34-.357.946-.026 1.181.022 1.636.335.292.2.478.451.415.557-.08.131.054.192.423.192.296 0 .539.063.539.139 0 .252.383.145.5-.14.073-.18.297-.277.636-.277.287 0 .616-.056.73-.124.407-.242 1.189-.323 1.189-.122 0 .105.114.263.254.352.194.124.317.108.514-.064.429-.374 1.024-.122.94.398-.043.264.038.464.202.498.15.032.272-.007.272-.088 0-.093.178-.104.489-.03.508.12 1.223-.051 1.541-.368.24-.24.808-.22.808.03 0 .235.64.482 1.024.394.143-.033.206-.15.14-.26-.088-.145.047-.196.504-.188.343.007.5.043.35.081-.369.095-.346.325.032.325.167 0 .36.094.43.209.068.115.275.208.459.208s.337.11.341.244c.007.232.02.232.297 0 .16-.134.402-.244.539-.244s.248-.093.248-.208c0-.233.042-.243.514-.128.183.045.278.17.213.278-.07.116.016.198.205.198.48 0 .907.364.579.493-.183.072-.15.14.114.234.272.097.446.068.65-.11.294-.256.894-.152.64.111-.097.1-.021.12.214.06l.669-.172c.2-.052.294.007.273.174-.027.207.157.26 1.024.296.703.028 1.01-.007.915-.105-.078-.08-.033-.147.101-.147s.18-.066.1-.148c-.097-.1.125-.117.697-.051 1.02.118 1.142.176.725.344-.419.168-.167.168.53 0 .366-.09.599-.086.69.009.077.079.265.113.418.075a.765.765 0 0 1 .519.085c.132.084.757.157 1.39.163.804.007 1.233.08 1.422.24.163.139.447.202.71.158.256-.043.438-.005.438.092 0 .183.578.104 1.637-.225.36-.112 1.14-.23 1.732-.263.593-.033 1.146-.131 1.23-.218.084-.086.256-.117.381-.068.125.05.288.027.362-.049.195-.201.97.14.833.368-.062.102.035.183.22.183.222 0 .292.091.215.279-.092.226-.006.278.457.278.314 0 .571-.063.571-.14 0-.076.369-.129.819-.117.658.016.7.032.218.078-.33.032-.6.107-.6.167 0 .098.33.105 1.582.034.21-.012.382-.088.382-.17 0-.08-.111-.103-.247-.05-.15.06-.203.023-.136-.096.06-.106.231-.175.379-.153a1.03 1.03 0 0 0 .535-.102c.303-.16 2.973-.134 2.818.027-.056.058.058.105.252.105s.292.062.218.139c-.187.193.185.174.499-.026.142-.09.33-.118.419-.062.088.056.017.16-.16.232-.27.109-.26.13.06.132.21.001.383.06.383.13 0 .076.308.073.766-.008.422-.074.864-.097.983-.05.118.047.215.026.215-.046 0-.191 1.155-.302 1.461-.14.144.075.496.118.783.094.496-.042 1.467.395 1.263.568-.051.044.096.098.328.122.311.03.345.009.13-.085-.205-.09-.025-.154.613-.22.498-.05.985-.06 1.085-.02.099.039.23-.054.293-.206.146-.355.957-.364 1.56-.017.442.256 2.085.51 2.088.323 0-.053.288-.2.638-.327.604-.219.658-.217 1.015.035.43.303.975.343 1.357.099.204-.13.262-.126.262.017 0 .147.065.15.328.01.265-.14.327-.134.327.031 0 .281.79.723.967.541.178-.183.78-.039.717.172-.031.107.301.15.99.13.697-.022 1.037.024 1.04.139.003.116.063.109.196-.024.111-.113.348-.156.562-.104.257.063.404.006.484-.188a.487.487 0 0 1 .416-.28c.166 0 .306-.077.311-.173.004-.096.156 0 .337.211.314.37.381.383 1.644.316.932-.05 1.424-.149 1.682-.339.522-.383 1.236-.483 1.637-.228.184.118.593.214.908.214.33 0 .517.06.439.14-.075.077.011.176.19.22.302.073 1.212-.129 2.539-.564.312-.103.732-.135.982-.077.24.057.562.073.716.036.37-.088 1.144.491.993.743-.072.12.018.197.232.197.193 0 .35.06.35.132 0 .173 1.344-.109 1.645-.344.215-.168.758-.257 1.35-.221.152.01.207.112.13.24-.107.178-.039.206.324.132.338-.068.644.02 1.157.332.383.234.609.429.5.434-.107.005.049.07.347.146.37.094.566.091.618-.01.043-.08.178-.107.301-.059.285.112.604-.203.609-.6.004-.416.37-.526 1.06-.319 1.361.41 1.532.444 1.76.354.131-.052.242-.012.246.088.004.12.104.1.296-.061.16-.134.407-.244.549-.244.142 0 .505-.157.807-.35a1.94 1.94 0 0 1 1.18-.318c.484.024.577.072.399.209-.187.143-.096.147.463.023.612-.136.732-.12 1.019.141.35.319 1.548.435 1.252.121-.112-.118-.047-.113.204.017.203.104.566.157.807.117.24-.04.387-.02.325.043-.126.13 1.455.07 2.274-.086.372-.07.48-.053.369.061-.086.089-.052.161.075.161s.231-.062.231-.139c0-.22 1.525-.167 1.66.057.088.147.28.166.76.079.394-.072.595-.067.518.012-.211.218.195.14.772-.148.609-.303 1.091-.358 1.091-.124 0 .202 1.04.038 1.461-.23.249-.159.255-.203.028-.205-.158-.002.14-.127.662-.278 1.006-.291 1.404-.263 1.195.084-.102.168-.013.192.455.118.32-.051.553-.039.519.028-.066.125.101.19.495.19.127 0 .17-.063.097-.14-.075-.076-.038-.138.08-.138.12 0 .279-.124.354-.275.11-.22.307-.269.976-.244.462.018.794.079.738.136-.055.058.013.104.143.104.14 0 .172.075.076.174-.095.099.073.074.387-.057.522-.218.611-.216 1.465.028.5.142.91.2.91.127 0-.073.22-.14.49-.15.34-.013.256-.054-.273-.131-.747-.11-.744-.11.11-.046 1.353.102 1.9.093 2.047-.035.254-.222 2.173-.22 2.874.003.751.239 3.073.28 3.29.058.088-.09.318-.077.649.036.282.097 1.282.193 2.222.216 1.449.034 1.774 0 2.13-.228.31-.198.604-.247 1.133-.189 1.21.134 1.43.21.944.325-.405.096-.402.104.055.18.264.045.436.035.382-.02-.16-.166 1.371-.456 1.873-.354.356.072.396.12.17.21-.373.146-.259.21.564.315.36.046.533.05.384.008-.209-.058-.2-.12.039-.272.345-.22 2.192-.42 1.994-.215-.068.07.031.165.22.211.532.13.911.08.418-.055-.391-.107-.396-.12-.04-.129.218-.006.586.055.818.134.288.098.422.099.422.002 0-.086.368-.115.928-.073.567.042.814.022.636-.052-.22-.091-.168-.141.209-.204.275-.046.545-.055.6-.02.056.036-.02.064-.17.064-.186 0-.166.067.066.214.471.3 1.767.088 1.769-.29 0-.15.18-.289.408-.317.28-.035.355.003.24.122-.125.129-.02.15.411.08.342-.054.578-.034.578.05 0 .078.147.141.328.141.394 0 .422.163.065.39-.203.13-.155.167.219.167.264 0 .48-.06.48-.133 0-.234 3.632-.477 3.845-.257.06.062.34.076.622.03.311-.05.754.017 1.132.169l.62.25-.417-.31-.417-.308.724.093c.521.066.68.047.568-.069-.1-.102.013-.16.294-.16.247 0 .424.078.394.173-.078.25 1.194.163 1.497-.101.309-.269.607-.276.448-.01-.138.228.579.43.973.275.153-.06.209-.023.146.095-.057.106.093.303.332.437.544.303.673.307.497.015-.118-.195-.087-.202.211-.044.292.154.386.152.571-.015.178-.16.197-.15.096.05-.135.264-.256.264 2.158.01.523-.054.59-.036.328.09-.26.126-.191.14.327.07.36-.048.872-.085 1.138-.082.34.004.446-.055.358-.2-.08-.134.013-.207.25-.207.243 0 .33.073.248.208-.08.134.013.213.25.22.228.007.268.039.102.081-.15.039-.273.126-.273.194 0 .16 1.373-.007 1.56-.19.079-.075.31-.095.515-.045.275.067.34.035.248-.119-.07-.116-.056-.215.03-.22.087-.005.427-.032.757-.06.33-.027.6.008.6.08 0 .07-.166.129-.37.129-.272 0-.307.041-.13.154.165.105.684.119 1.627.042 1.254-.101 1.312-.12.62-.195l-.764-.084.725-.111c.398-.061.782-.074.853-.03.07.046.247.02.393-.058.307-.162 1.032-.028.852.157-.067.069-.017.125.11.125.324 0 .29-.378-.04-.469-.15-.041.012-.048.362-.017.35.032.738.123.862.203.126.079.41.144.632.144.224 0 .353.054.288.121-.064.067.375.163.977.214.602.051 1.04.149.975.217-.066.068-.018.164.107.214.125.049.2.006.167-.095-.041-.126.25-.2.922-.234.764-.039.885-.075.546-.164-.39-.102-.376-.116.136-.124.316-.006.696.084.846.199.284.218 1.31.292 1.31.094 0-.062 1.09-.09 2.421-.06 1.45.031 2.372.001 2.298-.076-.074-.076.208-.09.688-.036.503.057 1.02.025 1.358-.084.3-.098.504-.195.454-.216-.05-.022-.044-.13.016-.242.078-.151.521-.208 1.728-.223 1.71-.02 2.385.128 2.385.523 0 .132.21.312.466.4.34.115.392.187.192.266-.166.065.084.13.63.163.76.046.996-.005 1.466-.318.53-.353 1.611-.62 1.611-.397 0 .057.196.136.436.176.24.04.437.169.437.285 0 .117.194.252.432.3.238.048.41.157.382.243-.054.169 1.739.426 2.068.297.11-.044.388.029.618.16.29.168.615.216 1.069.158.358-.045.7-.032.76.03.12.124.735.096 2.503-.112.647-.076 1.334-.087 1.528-.024.193.062 1.112.19 2.04.282.93.093 1.994.266 2.366.384.42.133.96.186 1.426.137.443-.045.698-.024.623.054-.07.072 0 .137.158.145.158.007.04.063-.26.125-.442.09-.347.114.506.125.578.007 1.24.079 1.473.158.526.18.554.02.04-.229-.35-.17-.337-.186.164-.204 1.09-.038 1.834.041 2.329.248.316.132.73.178 1.107.124.515-.075.543-.064.193.07-.293.113-.334.187-.145.261.148.058-.023.097-.389.088-.358-.008-.606-.062-.551-.12.154-.16-.215-.125-1.262.118-.525.122-1.225.22-1.555.218-.33-.002-.6.067-.6.154 0 .112-.075.11-.262-.01-.359-.228-.684-.21-.54.03.067.109-.032.235-.217.28-.185.045-.284.168-.22.273.192.32-1.408.69-2.626.608-.575-.038-.922-.041-.771-.007.15.035.209.13.13.212-.08.082-.05.111.068.065.117-.046.501.028.854.165.4.155 1.553.315 3.071.427 2.612.191 4.533.58 3.62.732-.336.056-.442.032-.338-.08.083-.088-.03-.066-.25.048-.297.154-.966.209-2.533.21-1.603 0-2.078.04-1.919.162.116.09.599.2 1.072.244l1.734.162c.481.045.819.14.75.21-.068.07.055.164.272.209.218.044.593.133.833.197s.924.146 1.52.182c.596.037 1.117.129 1.156.204.092.175.925.045.925-.143 0-.093.091-.092.273.002.33.172 2.573.176 2.92.007.155-.076.294-.044.372.086.093.153-.086.228-.684.29-.444.045-1.054.112-1.354.148-.425.051-.473.034-.218-.079.39-.172-1.894-.055-2.967.152-.372.072-.823.095-1.002.051a.815.815 0 0 0-.606.135c-.167.129-.631.215-1.151.215-.815 0-.865.023-.767.352.067.224-.014.393-.223.468-.432.154-.152.428.454.446.446.013.44.022-.067.125-.538.11-.536.112.11.135.525.02.573.044.244.127-.359.09-.317.132.327.335.621.195.66.232.247.235-.288.002-.49.089-.49.211 0 .116-.195.21-.437.21-.498 0-.538.111-.155.432.181.151.797.255 1.913.322 1.732.103 2.316.234 2.09.468-.162.167.952.438 1.913.466.618.018.601.028-.196.12l-.873.099.764.014c.42.007 1.157-.035 1.637-.095.509-.062 1.6-.037 2.619.061.96.093 1.626.176 1.48.184-.147.008-.208.11-.137.229.132.219.65.198.585-.023-.02-.067.324-.137.764-.156.599-.026.717.001.472.107-.232.1 0 .118.801.064.732-.05 1.182-.021 1.282.082.106.108.013.13-.291.068-.577-.116-.826.138-.323.33.319.121.252.144-.377.13-.42-.008-2.327.033-4.236.093-2.31.072-3.426.061-3.336-.032.086-.088-.239-.118-.893-.08-.566.032-2.11.078-3.43.102-3.564.065-3.384.05-3.243.283.07.115.39.208.713.208.323 0 .681.052.795.116.114.064.846.233 1.626.376.78.143 1.468.3 1.528.348.094.076 3.647.383 4.91.424.39.012.38.03-.093.172-.406.122-.55.119-.618-.013-.154-.294-.65-.186-.623.137.03.37.88.529 2.916.54.75.004 1.364.066 1.364.136 0 .071-.098.13-.218.13s-.218.054-.218.122c0 .194 1.169.286 1.49.117.192-.102.338-.105.436-.012.081.078.589.206 1.13.285l.981.143-.94-.01c-.56-.006-1.013.064-1.119.174-.13.134-.22.14-.334.023-.117-.122-.231-.121-.463.002-.17.09-.308.117-.308.06 0-.057-.143-.029-.317.064-.175.092-.518.126-.764.077-.296-.06-.448-.029-.45.093 0 .142-.042.144-.175.01-.124-.123-.367-.136-.87-.044-.384.07-.698.099-.698.063 0-.036-.206.006-.457.091-.57.195-1.763.046-1.278-.16.35-.147-.509-.06-1.626.165-.348.07-1.557.127-2.686.127-1.314 0-2.005.05-1.919.14.074.076-.07.138-.321.138s-.513.094-.582.21c-.083.136-.437.21-1.03.217-.785.007-.837.026-.395.139.433.11 3.67.302 4.892.29.21-.002.482.116.605.262.17.202.39.25.928.2l.704-.065-.709.143c-.747.15-1.004.355-.297.237.227-.037.546-.014.71.052.199.08.043.12-.474.122-.508.001-.873.093-1.074.27-.232.206-.69.292-1.942.367-1.456.087-1.593.119-1.23.287.305.143.328.194.093.205-.403.018.858.227 2.449.405.68.077 1.661.294 2.182.484l.947.345-.91.001c-1.957.004-2.163.35-.29.489 1.67.124 1.76.414.163.534-.672.051-1.252.18-1.403.311-.186.163-.812.254-2.26.33-1.838.097-2.376.227-2.39.576 0 .077.969.282 2.507.529.36.058 1.195.09 1.855.07 1.695-.05 6.54.208 7.256.386.647.16.764.322.328.452-.15.045.07.054.49.021.42-.032.961-.005 1.201.06.412.113.409.12-.067.129-.277.006-.443.072-.369.149.116.12-.886.22-1.496.15-.103-.011-.322.051-.488.139-.166.088-.475.114-.687.058-.67-.177-1.768-.218-1.91-.071-.076.078-.5.137-.942.131-.674-.008-.734-.031-.37-.14.352-.106.309-.118-.218-.06-1.669.183-2.305.198-2.164.052.092-.095 0-.123-.264-.076-1.28.23-1.494.25-1.184.114.226-.1.038-.124-.654-.086-.535.03-1.02.06-1.08.07-.061.01.234.105.654.211.64.162.675.19.218.177-.998-.03-1.347.025-1.255.198.113.218-1.251.527-2.06.467-.331-.025-.558.002-.502.059.055.056-.778.13-1.851.163-1.473.044-2.057.12-2.382.308-.351.202-.809.247-2.46.242-1.342-.004-1.92.038-1.707.124.178.072.691.131 1.141.132.45.002.819.065.819.142 0 .197.947.172 1.298-.035.235-.14.263-.14.14 0-.197.222-.133.219.846-.042.446-.119.747-.15.67-.07-.092.094.233.151.907.16.851.012.946.035.504.126-.499.101-.505.112-.075.125.35.01.443.081.362.278-.075.184.034.294.35.358.254.051.405.15.337.22-.07.073.162.09.543.042.523-.066.665-.036.665.142 0 .164-.222.232-.818.248l-.819.022.764.053c1.184.081 1.51.188.982.32-.347.088-.291.11.273.104.47-.005.71-.076.71-.21 0-.12.129-.17.32-.124.176.043.388.01.47-.076.098-.101.044-.116-.157-.043-.21.077-.238.066-.087-.035.12-.08.924-.215 1.787-.299 1.935-.187 2.26-.187 1.755 0-.213.08-.33.203-.26.275.073.075.27.041.457-.078.435-.277 1.115-.293.757-.018-.27.207.48.264 5.761.438 3.365.11 7.748.539 7.748.756 0 .198 2.383.368 3.71.265.763-.059 1.544.028 1.419.158-.075.076-.013.14.15.14.214.003.206.035-.03.13-.175.071-.389.1-.476.066-.088-.034-.221.002-.297.079-.076.077-.862.141-1.748.141-.927 0-1.673.064-1.758.152-.086.089-.436.117-.846.068-.706-.085-2.088.135-2.088.33 0 .06-.26.075-.578.037-.338-.041-.525-.016-.45.062.153.157-.25.167-9.047.217-6.411.037-8.21.13-5.931.309.58.045 1.53.144 2.11.219.579.075 1.334.136 1.678.136.344 0 .685.062.758.137.074.075.35.133.613.129.264-.005.9.06 1.413.142.513.083 1.79.172 2.837.196 2.339.055 5.736.359 6.107.545.213.107.168.197-.197.399-.259.143-.561.26-.671.26-.111 0-.038.104.161.231.214.137.673.223 1.123.213.512-.013.732.037.671.151-.062.119-.55.156-1.598.125-1.347-.041-5.664.39-6.262.626-.108.042-1.462.073-3.007.068-1.546-.005-2.858.039-2.916.098-.058.06.799.12 1.903.133 1.832.023 2.982.07 5.845.236.55.032 1.236.114 1.524.182.577.136.54.15-.985.368-.497.071-.572.121-.327.22.273.11.271.128-.013.131-.291.004-.291.02 0 .14.29.12.29.136 0 .147-.18.007.014.091.43.187l.758.174-.724.093c-.4.05-.986.052-1.304.002l-.579-.09.546.295c.635.343.329.407-.397.083-.456-.203-.56-.2-1.36.053-.78.246-.818.28-.374.342.272.037.69.112.93.167.437.099.437.099 0-.136-.428-.23-.426-.232.11-.135.3.055.639.155.753.223.113.068.408.13.655.138.383.012.369.03-.098.125l-.546.111.546.023c.526.022.52.03-.164.248-.39.124-.71.302-.71.396 0 .118-.475.173-1.537.18-1.489.008-2.585.254-2.226.499.09.06-.06.037-.334-.054-.4-.132-.559-.125-.818.04-.177.114-.887.245-1.577.293-1.766.122-2.237.196-2.237.353 0 .075.583.136 1.295.136 1.402 0 2.415.18 2.415.427 0 .086-.195.188-.434.228-.239.04-.386.122-.328.182.058.06-.5.155-1.24.21-.74.054-1.64.213-2 .352l-.653.254.636.09c.35.048.92.146 1.269.216.348.07.913.128 1.255.128.342 0 .622.061.622.136 0 .15-.437.223-2.073.344-.6.044-1.13.154-1.178.244-.048.09-.318.311-.6.491-.68.433-.65.551.216.877.4.15.847.439.99.64.227.317.202.402-.183.63-.245.146-.446.224-.446.173 0-.05-.146-.015-.325.08-.178.094-.27.227-.205.295.066.068-.022.123-.194.123-.172 0-.426.087-.563.192-.138.106-.567.24-.955.297-.456.067-.575.125-.337.164.458.074.43.591-.03.57-.708-.032-1.846.065-1.48.125.212.036.333.118.27.184-.064.065.18.23.542.367.362.136.659.287.659.335 0 .047.223.151.497.23.752.22.711.724-.072.898-.953.212-.565.394.843.395 1.934.003 2.728.13 3.172.508.545.465.321.945-.622 1.334-.416.172-.758.35-.76.394 0 .083 1.578.36 2.7.473.814.082.955.18.439.304-.227.055-.54.18-.693.276-.154.097-.596.21-.982.251l-3.293.342c-3.588.37-3.993.725-1.06.925 1.303.089 3.549.448 2.928.468-.157.005-.225.072-.15.149.076.078-.102.139-.41.139-.3 0-.82.07-1.158.154-.545.137-.568.166-.202.252.455.108-1.474.352-4.123.521-.84.054-1.724.115-1.964.136-.24.022-1.026.075-1.746.12-.72.044-1.822.238-2.448.43-.627.192-1.486.386-1.91.43-.424.044-.77.13-.77.191 0 .062-.335.19-.744.283-.409.095-.702.24-.652.322.058.097-.434.165-1.377.19-.806.022-1.52.087-1.584.144-.065.058-1.444.103-3.064.1-2.457-.004-3.014.034-3.352.228-.223.129-.543.2-.71.16-.166-.041-.303-.005-.303.08 0 .084-.295.153-.655.153-.36 0-.655.056-.655.124 0 .259-1.133.312-1.548.073-.301-.174-.657-.216-1.389-.163-.54.039-.937.023-.881-.034.151-.156-1.105-.283-1.856-.188-.36.046-.655.168-.655.27 0 .11-.136.154-.327.108-.204-.05-.327.001-.327.134 0 .238-.742.44-1.1.3-.125-.05-.356-.024-.511.058-.35.185-5.706.236-6.084.057-.399-.187-1.69-.229-1.69-.054 0 .253-.754.166-1.157-.134-.389-.29-.807-.26-.807.058 0 .294-1.02.768-1.486.69-.236-.039-.495-.003-.576.08-.184.19-1.14.199-1.32.012-.074-.076-.318-.139-.541-.139-.223 0-.44-.067-.484-.15-.106-.202-2.051-.307-2.549-.138-.271.093-.478.085-.651-.026-.193-.123-.336-.086-.597.151-.58.527-1.402.998-1.743.998-.179 0-.819-.16-1.422-.355-.63-.203-1.272-.319-1.507-.271-.225.045-.607.004-.848-.092-.373-.148-.607-.12-1.559.193-1.145.376-1.639.374-2.123-.009-.212-.168-.332-.18-.534-.05-.144.091-.54.166-.88.166-.36 0-.672.091-.75.22-.095.158-.288.193-.702.125-1.16-.19-1.552-.207-1.552-.07 0 .081-.566.143-1.31.143-.727 0-1.31.061-1.31.139 0 .076-.25.139-.558.139-.317 0-.5.06-.423.139.073.076.03.14-.097.14-.128 0-.231-.09-.231-.198 0-.108-.27-.26-.6-.337-.33-.077-.478-.144-.328-.15.376-.016.347-.29-.03-.29-.168 0-.357.087-.42.193-.114.19-1.305.363-2.714.396-.39.009-.71.063-.71.12 0 .33-2.727.371-3.284.05-.358-.207-1.759-.28-2.031-.106-.083.053-.37.116-.637.14-.267.024-.837.303-1.268.62l-.782.577-1.057-.23c-.581-.126-1.383-.23-1.782-.23-.5 0-.725-.065-.725-.208 0-.289-.28-.261-.593.058-.265.27-1.153.26-1.153-.014 0-.224-1.328.456-1.58.808-.13.181-.373.33-.541.33-.168 0-.238.07-.156.154.256.264-.837-.016-1.433-.367-.396-.234-.71-.301-1.146-.247-.33.041-.6.133-.6.203 0 .229-1.589.731-2.386.755-.931.027-1.509.14-2.74.538-.955.307-1.421.316-1.421.026 0-.269-1.13-.474-1.812-.33-.438.094-.736.074-1.087-.073-.485-.202-.742-.176-2.04.207-.345.102-.607.077-1.026-.098-.319-.133-.745-.197-.986-.149a1.12 1.12 0 0 1-.759-.127c-.465-.297-1.161-.267-2.065.09-.75.295-.796.296-1.805.068-.977-.221-1.859-.196-1.624.045.058.06-.114.117-.384.125-1.62.048-3.046.137-3.139.197-.06.037-.458.007-.887-.069-.513-.09-.825-.09-.913 0-.178.184-.237.186-1.058.036-.45-.082-.754-.08-.838.006-.084.087-.223.088-.385.003-.466-.245-2.261-.345-2.467-.138-.509.512-2.76.763-4.115.458-1.067-.24-1.272-.248-1.07-.04.107.11.009.137-.306.084-.269-.045-.573.007-.724.124-.144.11-.39.169-.547.13-.157-.038-.343-.01-.414.064-.071.073-.376.133-.676.133-.301 0-.73.062-.954.138-.299.102-.495.084-.734-.07-.18-.114-.712-.208-1.181-.208-.47 0-1.305-.086-1.857-.192-.857-.164-1.02-.164-1.12.002-.09.148-.392.173-1.294.106-.756-.057-1.23-.035-1.324.063-.097.1-.737.122-1.918.064-1.244-.061-1.73-.042-1.627.063.238.245-1.126.355-2.147.173-.686-.122-1.053-.126-1.382-.014-.567.194-1.42.2-1.236.01h-.007z"/>
</svg>
